<svg id="Layer_1" xmlns="http://www.w3.org/2000/svg" viewBox="0 0 2000 300.29"><defs><style>.cls-1{fill:#fbf0e5}</style></defs><path class="cls-1" d="M160.69 162.98c4.79 1.87 9.49 4.28 14.08 7.2 4.59 2.93 8.66 6.52 12.21 10.8 3.54 4.28 6.42 9.18 8.61 14.71 2.19 5.53 3.29 11.84 3.29 18.93 0 8.76-1.77 16.64-5.32 23.63-3.55 6.99-8.61 12.99-15.18 18-6.57 5-14.39 8.81-23.47 11.42-9.08 2.61-19.25 3.91-30.52 3.91H43.96c-9.81 0-14.71-4.9-14.71-14.71V82.86c0-9.8 4.9-14.71 14.71-14.71h74.17c10.43 0 19.82 1.25 28.17 3.75 8.34 2.51 15.49 6.1 21.43 10.8 5.95 4.7 10.53 10.33 13.77 16.9 3.23 6.57 4.85 13.92 4.85 22.06 0 9.39-2.3 17.58-6.88 24.56-4.59 6.99-10.85 12.57-18.78 16.74Zm-45.21 68.85c9.22 0 16.41-2.08 21.55-6.26 5.13-4.17 7.71-9.9 7.71-17.21s-2.57-12.78-7.71-17.05c-5.14-4.28-12.01-6.42-20.61-6.42H84.33l-.31 46.94h31.46ZM84.65 107.9l-.31 42.87h25.19c7.56 0 13.54-1.88 17.95-5.63 4.41-3.76 6.62-8.97 6.62-15.65s-2.21-11.94-6.62-15.8c-4.41-3.86-10.39-5.79-17.95-5.79H84.65ZM295.26 111.03c9.39 0 18.57 1.15 27.54 3.44 8.97 2.3 16.95 6.05 23.94 11.26 6.99 5.22 12.62 12.1 16.9 20.65 4.28 8.56 6.42 19.09 6.42 31.61v79.17c0 9.6-4.8 14.39-14.39 14.39h-12.83c-9.39 0-14.09-4.79-14.09-14.39v-1.25c-6.68 6.05-14.24 10.85-22.69 14.39-8.45 3.54-17.58 5.32-27.38 5.32s-17.84-1.2-25.35-3.6-13.98-5.79-19.4-10.17c-5.43-4.38-9.6-9.59-12.52-15.65-2.93-6.05-4.38-12.83-4.38-20.34 0-8.13 1.61-15.49 4.85-22.06 3.23-6.57 7.77-12.21 13.61-16.9 5.84-4.7 12.88-8.3 21.13-10.8 8.24-2.5 17.47-3.76 27.69-3.76 6.05 0 12.1.63 18.15 1.88 6.05 1.25 11.89 2.82 17.52 4.7v-5.63c0-7.3-2.45-13.04-7.35-17.22-4.9-4.17-11.94-6.26-21.13-6.26-7.72 0-14.55.94-20.5 2.82-5.95 1.87-10.79 3.96-14.55 6.26-3.55 1.87-6.88 2.5-10.01 1.87-3.13-.62-5.85-3.13-8.14-7.51l-3.44-7.2c-2.72-5-3.6-9.02-2.66-12.05.94-3.02 3.08-5.58 6.42-7.66 7.72-4.8 16.74-8.55 27.07-11.27 10.33-2.71 20.18-4.07 29.57-4.07Zm-2.82 131.12c8.55 0 15.49-2.14 20.81-6.41 5.32-4.28 7.98-8.5 7.98-12.68v-12.83c-2.93-1.46-6.94-2.97-12.05-4.54-5.11-1.57-10.48-2.35-16.12-2.35-7.72 0-13.88 1.83-18.46 5.48-4.59 3.65-6.89 8.4-6.89 14.24s2.24 10.48 6.73 13.93c4.48 3.44 10.48 5.16 18 5.16ZM515.57 114.47c2.71 1.05 5 2.4 6.88 4.07s2.19 4.8.94 9.39l-5.95 23.48c-1.26 4.38-3.08 7.14-5.48 8.29-2.4 1.15-4.96 1.2-7.66.16-2.51-.83-5.17-1.57-7.98-2.19-2.82-.62-5.58-.94-8.29-.94-9.39 0-16.49 2.77-21.28 8.29-4.8 5.53-7.2 12.99-7.2 22.38v69.79c0 9.6-4.7 14.39-14.09 14.39h-25.97c-9.39 0-14.09-4.79-14.09-14.39V127.92c0-9.59 4.7-14.39 14.09-14.39h16.59c9.39 0 14.08 4.8 14.08 14.39v7.51c5.42-7.72 11.74-13.71 18.93-17.99s15.18-6.42 23.94-6.42c8.14 0 15.65 1.15 22.53 3.44ZM699.27 257.17c3.54 4.38 4.27 7.88 2.19 10.48-2.09 2.61-5.43 3.91-10.01 3.91h-34.11c-4.8 0-8.81-1.25-12.05-3.75-3.23-2.51-6.31-5.95-9.23-10.33l-29.73-44.44-10.02 11.58v32.55c0 9.6-4.8 14.39-14.39 14.39h-25.35c-9.39 0-14.08-4.79-14.08-14.39V67.53c0-4.59 1.2-7.92 3.6-10.01 2.4-2.08 5.89-3.54 10.48-4.38l25.04-4.7c4.8-1.04 8.45-.1 10.96 2.82 2.5 2.93 3.75 6.78 3.75 11.58v114.54l39.43-49.76c3.54-4.17 6.77-7.56 9.7-10.17 2.92-2.61 6.78-3.91 11.58-3.91h31.92c4.38 0 7.61 1.31 9.7 3.91 2.08 2.61 1.36 6.1-2.19 10.48l-49.13 58.21 51.95 71.04ZM1186.82 162.98c4.8 1.87 9.49 4.28 14.09 7.2 4.59 2.93 8.65 6.52 12.21 10.8 3.54 4.28 6.41 9.18 8.61 14.71 2.19 5.53 3.29 11.84 3.29 18.93 0 8.76-1.78 16.64-5.32 23.63-3.55 6.99-8.61 12.99-15.18 18-6.57 5-14.39 8.81-23.47 11.42-9.08 2.61-19.25 3.91-30.51 3.91h-80.43c-9.81 0-14.71-4.9-14.71-14.71V82.86c0-9.8 4.9-14.71 14.71-14.71h74.17c10.43 0 19.82 1.25 28.17 3.75 8.34 2.51 15.49 6.1 21.44 10.8 5.95 4.7 10.53 10.33 13.77 16.9 3.23 6.57 4.85 13.92 4.85 22.06 0 9.39-2.3 17.58-6.88 24.56-4.6 6.99-10.85 12.57-18.78 16.74Zm-45.21 68.85c9.23 0 16.41-2.08 21.55-6.26 5.13-4.17 7.71-9.9 7.71-17.21s-2.57-12.78-7.71-17.05c-5.14-4.28-12.01-6.42-20.61-6.42h-32.09l-.31 46.94h31.46Zm-30.83-123.93-.31 42.87h25.19c7.56 0 13.54-1.88 17.95-5.63 4.41-3.76 6.61-8.97 6.61-15.65s-2.2-11.94-6.61-15.8c-4.41-3.86-10.39-5.79-17.95-5.79h-24.88ZM1321.39 111.03c9.39 0 18.57 1.15 27.54 3.44 8.97 2.3 16.94 6.05 23.94 11.26 6.99 5.22 12.62 12.1 16.9 20.65 4.27 8.56 6.42 19.09 6.42 31.61v79.17c0 9.6-4.8 14.39-14.4 14.39h-12.83c-9.39 0-14.08-4.79-14.08-14.39v-1.25c-6.68 6.05-14.24 10.85-22.69 14.39-8.45 3.54-17.58 5.32-27.38 5.32s-17.84-1.2-25.35-3.6-13.98-5.79-19.4-10.17c-5.43-4.38-9.6-9.59-12.52-15.65-2.92-6.05-4.38-12.83-4.38-20.34 0-8.13 1.61-15.49 4.85-22.06 3.23-6.57 7.77-12.21 13.61-16.9 5.84-4.7 12.88-8.3 21.12-10.8s17.47-3.76 27.7-3.76c6.05 0 12.1.63 18.15 1.88s11.89 2.82 17.53 4.7v-5.63c0-7.3-2.45-13.04-7.35-17.22-4.91-4.17-11.95-6.26-21.13-6.26-7.72 0-14.55.94-20.5 2.82-5.95 1.87-10.8 3.96-14.55 6.26-3.55 1.87-6.89 2.5-10.02 1.87-3.13-.62-5.84-3.13-8.13-7.51l-3.44-7.2c-2.71-5-3.6-9.02-2.66-12.05.94-3.02 3.08-5.58 6.42-7.66 7.72-4.8 16.74-8.55 27.07-11.27 10.33-2.71 20.19-4.07 29.57-4.07Zm-2.82 131.12c8.55 0 15.49-2.14 20.81-6.41s7.98-8.5 7.98-12.68v-12.83c-2.93-1.46-6.94-2.97-12.05-4.54-5.11-1.57-10.48-2.35-16.12-2.35-7.72 0-13.88 1.83-18.47 5.48-4.59 3.65-6.88 8.4-6.88 14.24s2.24 10.48 6.73 13.93c4.49 3.44 10.48 5.16 18 5.16ZM1492.57 275.95c-6.88 0-13.61-.62-20.18-1.87-6.57-1.26-12.68-2.92-18.31-5.01-5.63-2.08-10.79-4.49-15.49-7.2s-8.61-5.53-11.74-8.45c-3.55-3.34-5.58-6.62-6.1-9.86-.52-3.23 1.09-6.93 4.85-11.11l7.51-9.08c3.55-4.38 7.04-6.31 10.48-5.79 3.44.52 6.94 1.93 10.48 4.22 5.42 3.97 11.42 7.25 18 9.86 6.57 2.61 13.5 3.91 20.81 3.91 9.8 0 14.71-3.13 14.71-9.39 0-3.75-2.04-6.67-6.1-8.76-4.07-2.08-8.61-3.96-13.61-5.63-6.88-2.08-13.88-4.38-20.96-6.89-7.1-2.5-13.46-5.68-19.09-9.54-5.63-3.86-10.22-8.61-13.77-14.24-3.55-5.63-5.32-12.62-5.32-20.96 0-15.23 5.79-27.28 17.37-36.15 11.58-8.87 27.17-13.3 46.78-13.3 5.63 0 11.26.47 16.9 1.41 5.64.94 11 2.19 16.12 3.76 5.11 1.57 9.8 3.39 14.08 5.48 4.27 2.09 7.77 4.28 10.48 6.57 3.54 3.13 5.53 6.26 5.95 9.39.41 3.13-1.25 7.1-5.01 11.89l-6.57 8.14c-2.72 3.55-5.85 5.43-9.39 5.63-3.55.21-7.09-.83-10.64-3.13a60.008 60.008 0 0 0-14.24-7.51c-5.11-1.88-10.8-2.82-17.05-2.82-4.39 0-7.78.78-10.18 2.35s-3.6 3.6-3.6 6.1c0 3.97 3.23 6.99 9.7 9.08 6.46 2.09 14.6 4.9 24.41 8.45 6.46 2.51 12.41 5.27 17.84 8.3 5.42 3.03 10.11 6.47 14.08 10.33 3.96 3.86 7.09 8.34 9.39 13.46 2.29 5.11 3.44 11.11 3.44 17.99 0 7.93-1.62 15.02-4.85 21.28-3.24 6.26-7.72 11.53-13.46 15.8-5.74 4.28-12.68 7.57-20.81 9.86-8.14 2.29-17.11 3.44-26.91 3.44ZM1613.99 89.44c-4.38 0-8.56-.83-12.52-2.51a32.185 32.185 0 0 1-10.48-7.04 32.291 32.291 0 0 1-7.04-10.48c-1.67-3.96-2.5-8.13-2.5-12.52s.83-8.87 2.5-12.83c1.67-3.96 4.01-7.4 7.04-10.33 3.02-2.92 6.52-5.21 10.48-6.88 3.96-1.67 8.13-2.5 12.52-2.5s8.87.83 12.83 2.5 7.41 3.97 10.33 6.88c2.92 2.93 5.21 6.37 6.89 10.33 1.66 3.97 2.5 8.24 2.5 12.83s-.84 8.55-2.5 12.52c-1.67 3.97-3.97 7.46-6.89 10.48-2.92 3.03-6.36 5.38-10.33 7.04-3.96 1.67-8.24 2.51-12.83 2.51Zm-12.75 182.13c-9.65 0-14.48-4.79-14.48-14.39V127.92c0-9.59 4.83-14.39 14.48-14.39h25.81c9.65 0 14.48 4.8 14.48 14.39v129.25c0 9.6-4.82 14.39-14.48 14.39h-25.81ZM1753.88 275.64c-12.32 0-23.68-2.03-34.11-6.1-10.44-4.07-19.46-9.8-27.07-17.22-7.62-7.4-13.56-16.12-17.84-26.13-4.28-10.01-6.41-20.97-6.41-32.86s2.14-22.84 6.41-32.86c4.28-10.01 10.22-18.72 17.84-26.13 7.62-7.4 16.63-13.14 27.07-17.21 10.43-4.07 21.8-6.1 34.11-6.1 13.35 0 25.14 2.25 35.36 6.73 10.22 4.49 19.09 10.38 26.6 17.68 2.08 2.3 3.44 4.7 4.07 7.2.63 2.5-.84 5.53-4.38 9.07l-16.59 16.59c-2.3 2.09-4.7 3.34-7.2 3.76s-5.53-1.04-9.08-4.38c-3.96-3.55-8.19-6.16-12.67-7.83-4.49-1.67-9.13-2.5-13.93-2.5-10.01 0-18.2 3.39-24.56 10.17-6.36 6.78-9.55 15.39-9.55 25.82s3.13 19.09 9.39 25.98c6.26 6.88 14.5 10.33 24.72 10.33 4.8 0 9.44-.88 13.93-2.66 4.48-1.77 8.71-4.43 12.67-7.98 3.55-3.33 6.57-4.8 9.08-4.38s4.9 1.67 7.2 3.75l16.59 16.59c3.54 3.55 5.01 6.57 4.38 9.08s-1.98 4.9-4.07 7.2c-7.51 7.31-16.38 13.2-26.6 17.68-10.23 4.49-22.01 6.73-35.36 6.73ZM1904.72 275.95c-6.88 0-13.61-.62-20.18-1.87-6.57-1.26-12.68-2.92-18.31-5.01-5.63-2.08-10.79-4.49-15.49-7.2s-8.61-5.53-11.74-8.45c-3.55-3.34-5.58-6.62-6.1-9.86-.52-3.23 1.09-6.93 4.85-11.11l7.51-9.08c3.55-4.38 7.04-6.31 10.48-5.79 3.44.52 6.94 1.93 10.48 4.22 5.42 3.97 11.42 7.25 18 9.86 6.57 2.61 13.5 3.91 20.81 3.91 9.8 0 14.71-3.13 14.71-9.39 0-3.75-2.04-6.67-6.1-8.76-4.07-2.08-8.61-3.96-13.61-5.63-6.88-2.08-13.88-4.38-20.96-6.89-7.1-2.5-13.46-5.68-19.09-9.54-5.63-3.86-10.22-8.61-13.77-14.24-3.55-5.63-5.32-12.62-5.32-20.96 0-15.23 5.79-27.28 17.37-36.15 11.58-8.87 27.17-13.3 46.78-13.3 5.63 0 11.26.47 16.9 1.41 5.64.94 11 2.19 16.12 3.76 5.11 1.57 9.8 3.39 14.08 5.48 4.27 2.09 7.77 4.28 10.48 6.57 3.54 3.13 5.53 6.26 5.95 9.39.41 3.13-1.25 7.1-5.01 11.89l-6.57 8.14c-2.72 3.55-5.85 5.43-9.39 5.63-3.55.21-7.09-.83-10.64-3.13a60.008 60.008 0 0 0-14.24-7.51c-5.11-1.88-10.8-2.82-17.05-2.82-4.39 0-7.78.78-10.18 2.35s-3.6 3.6-3.6 6.1c0 3.97 3.23 6.99 9.7 9.08 6.46 2.09 14.6 4.9 24.41 8.45 6.46 2.51 12.41 5.27 17.84 8.3 5.42 3.03 10.11 6.47 14.08 10.33 3.96 3.86 7.09 8.34 9.39 13.46 2.29 5.11 3.44 11.11 3.44 17.99 0 7.93-1.62 15.02-4.85 21.28-3.24 6.26-7.72 11.53-13.46 15.8-5.74 4.28-12.68 7.57-20.81 9.86-8.14 2.29-17.11 3.44-26.91 3.44ZM863.49 181.28c.9 2.14.82 3.77-.25 4.89s-2.22 2.14-3.46 3.03c-2.7 2.03-6.1 3.57-10.2 4.64-4.11 1.07-8.3 1.6-12.57 1.6s-8.66-.62-12.82-1.86c-4.16-1.24-7.9-3.23-11.22-5.99-3.32-2.75-5.99-6.29-8.01-10.63-2.03-4.32-3.04-9.59-3.04-15.77v-29.35h-7.08c-5.62 0-8.43-2.81-8.43-8.43v-6.92c0-5.62 2.81-8.43 8.43-8.43h7.08V89.67c0-2.81.73-4.81 2.19-5.99 1.46-1.18 3.54-2.05 6.24-2.62l16.03-2.87c2.81-.56 4.95.03 6.41 1.77s2.19 3.96 2.19 6.66v21.43h15.35c2.7 0 4.8.73 6.32 2.19s2.28 3.54 2.28 6.24v6.92c0 2.7-.76 4.78-2.28 6.24s-3.62 2.19-6.32 2.19h-15.35v25.64c0 3.93.81 6.58 2.45 7.92 1.63 1.35 3.57 2.03 5.82 2.03 1.24 0 2.42-.22 3.54-.68 1.12-.45 2.14-.96 3.03-1.52 2.25-1.57 3.93-1.94 5.06-1.1 1.12.85 2.08 2.11 2.87 3.8l5.73 13.33ZM915.28 195.45c-6.86 0-13.21-1.09-19.06-3.29-5.85-2.19-10.88-5.28-15.1-9.28-4.21-3.99-7.51-8.69-9.87-14.09-2.36-5.39-3.54-11.3-3.54-17.71s1.18-12.31 3.54-17.71c2.36-5.4 5.65-10.09 9.87-14.09 4.22-3.99 9.25-7.09 15.1-9.28 5.85-2.19 12.2-3.29 19.06-3.29s13.35 1.1 19.15 3.29c5.79 2.19 10.79 5.28 15.01 9.28 4.21 3.99 7.51 8.69 9.87 14.09 2.36 5.4 3.54 11.3 3.54 17.71s-1.18 12.32-3.54 17.71c-2.36 5.4-5.65 10.1-9.87 14.09-4.22 4-9.22 7.09-15.01 9.28-5.79 2.19-12.17 3.29-19.15 3.29Zm0-28.17c4.27 0 7.82-1.52 10.63-4.55s4.22-6.92 4.22-11.64-1.41-8.6-4.22-11.64c-2.81-3.03-6.36-4.55-10.63-4.55s-7.82 1.52-10.63 4.55c-2.81 3.04-4.21 6.92-4.21 11.64s1.4 8.61 4.21 11.64 6.35 4.55 10.63 4.55Z"/><rect class="cls-1" x="796.38" y="239.44" width="168.15" height="32.13" rx="13.01" ry="13.01"/></svg>