<svg xmlns="http://www.w3.org/2000/svg" id="Layer_1" viewBox="677 99 458 458"><defs><clipPath id="clippath"><circle cx="906.24" cy="328.18" r="207.9" class="cls-1"/></clipPath><clipPath id="clippath-1"><circle cx="1954.5" cy="407.54" r="401.46" class="cls-1"/></clipPath><style>.cls-1{fill:none}.cls-3{fill:#ecae7d}.cls-4{fill:#e9311a}</style></defs><path d="M1105.15 520.12c-1.81 0-3.5-.31-5.05-.95-1.55-.63-2.9-1.51-4.04-2.63a12.05 12.05 0 0 1-2.7-3.97q-.99-2.295-.99-4.98c0-2.685.33-3.45.99-4.99s1.56-2.87 2.7-3.99 2.49-2 4.04-2.64 3.24-.97 5.05-.97 3.47.32 5.03.97c1.57.65 2.92 1.53 4.06 2.64q1.71 1.68 2.7 3.99c.99 2.31.99 3.21.99 4.99s-.33 3.44-.99 4.98c-.66 1.53-1.56 2.85-2.7 3.97-1.15 1.12-2.5 1.99-4.06 2.63s-3.24.95-5.03.95m0-2.64c1.42 0 2.73-.25 3.95-.76s2.27-1.2 3.17-2.09c.89-.88 1.6-1.93 2.1-3.13.51-1.2.76-2.52.76-3.93s-.25-2.73-.76-3.93a9.6 9.6 0 0 0-2.1-3.13 9.7 9.7 0 0 0-3.17-2.08c-1.22-.51-2.53-.76-3.95-.76s-2.73.25-3.95.76-2.27 1.2-3.17 2.08c-.89.88-1.6 1.93-2.1 3.13-.51 1.2-.76 2.51-.76 3.93s.25 2.73.76 3.93q.765 1.8 2.1 3.15c1.335 1.35 1.95 1.59 3.17 2.08 1.22.5 2.53.75 3.95.75m.37-2.64q-1.605 0-3-.54c-.93-.36-1.74-.87-2.42-1.53s-1.22-1.43-1.6-2.33-.58-1.86-.58-2.91.19-2.05.58-2.94c.38-.89.92-1.67 1.6-2.33s1.49-1.17 2.42-1.53q1.395-.54 3-.54c1.27 0 2.35.21 3.26.63s1.68.96 2.33 1.6c.18.2.28.42.32.65s-.09.49-.39.76l-1.49 1.49c-.2.2-.42.32-.65.35-.24.04-.5-.09-.8-.39-.65-.6-1.43-.89-2.35-.89s-1.61.29-2.14.88-.8 1.34-.8 2.25c0 .87.26 1.6.78 2.2s1.24.89 2.16.89c.5 0 .94-.09 1.34-.26s.73-.4 1.01-.67c.3-.3.57-.43.8-.39s.45.16.65.35l1.49 1.49c.3.3.43.57.39.8-.04.24-.14.45-.32.65-.62.65-1.39 1.18-2.31 1.6s-2.01.64-3.28.64Z" class="cls-4"/><circle cx="906.24" cy="328.18" r="208.27" style="fill:#fbf0e5"/><g style="clip-path:url(#clippath)"><path d="M1078.41 487.93c-2.02 18.66-10.03 35.99-23.23 49.82-16.35 17.12-38.39 26.55-62.05 26.55a6.521 6.521 0 0 0 0 13.04c27.26 0 52.65-10.86 71.48-30.58 11.65-12.2 19.79-26.77 24.01-42.58l-10.21-16.24Z" class="cls-3"/><path d="M1049.08 326.96c-4.3 4.21-4.84-3.84-10.86-3.9-6.02-.07-6.73 7.97-10.94 3.66-4.96-5.07 5.03-13.59 11.05-13.52s16.1 8.53 10.75 13.76" class="cls-4"/><path d="M1120.52 604.39c-2.29 0-4.51-1.21-5.7-3.35-11.94-21.43-1.96-111.53-.78-121.73a6.506 6.506 0 0 1 7.23-5.73c3.58.41 6.14 3.65 5.73 7.22-4.26 36.93-8.24 100.51-.78 113.89 1.75 3.15.62 7.12-2.52 8.87a6.5 6.5 0 0 1-3.17.83Z" class="cls-4"/><path d="M1005.31 466.21c-3.01 2.22-5.95 4.36-8.8 6.44-5.89 4.29-11.37 8.32-16.53 12.34l30.09 8.33 7.45 7.93-22.9 14.08-17.95 8.52-29.05 3.53c-3.1 12.28-2.48 25.42 2.41 36.94 4.28 10.1 15.58 27.04 43.11 27.04 23.66 0 45.7-9.43 62.05-26.55 16.34-17.11 24.74-39.59 23.65-63.3-1.29-28.15-16.63-52.96-39.02-67.67-8.12 10.24-19.25 21.12-34.5 32.38Z" class="cls-1"/><path d="m920.61 459.9 5.1 3.08c2.95-8.46 7.28-16.26 12.63-23.22a86.2 86.2 0 0 0-17.73 20.14" class="cls-1"/><path d="m937.22 469.94 9.83 5.94 17.52 4.85c7.38-6.22 15.39-12.15 24.25-18.61 2.84-2.07 5.75-4.19 8.74-6.4 13.5-9.97 23.42-19.49 30.68-28.35-8.68-3.95-18.12-6.4-27.99-7.22-29.5 1.81-54.61 22.1-63.03 49.79" class="cls-1"/><path d="M986.61 597.87c0-3.6 2.92-6.52 6.52-6.52-27.53 0-38.83-16.94-43.11-27.04-4.89-11.52-5.51-24.66-2.41-36.94l-10.08 1.22-3.63.84c-2.4 13.46-1.19 27.49 4.11 39.97 9.43 22.24 29.52 34.99 55.11 34.99-3.6 0-6.52-2.92-6.52-6.52Z" class="cls-4"/><path d="M997.56 455.72c-2.99 2.21-5.9 4.33-8.74 6.4-8.87 6.46-16.88 12.39-24.25 18.61l15.41 4.26c5.16-4.02 10.64-8.04 16.53-12.34 2.86-2.08 5.79-4.22 8.8-6.44 15.25-11.26 26.38-22.14 34.5-32.38-3.69-2.42-7.53-4.62-11.57-6.46-7.26 8.86-17.17 18.38-30.68 28.35" class="cls-4"/><path d="M1118.23 325.71c-18.42-30.07-48.7-49.72-87.58-56.83l-6.4-1.06-1.27 6.25c-.57 2.8-2.11 11.44-1.13 18.57-6.25 4.32-15.97 13.33-16.57 27.76-.45 10.87-7.47 19.78-10.46 23.11a9.25 9.25 0 0 0-2.38 6.82c.16 2.52 1.3 4.82 3.22 6.48 6.9 5.96 29.18 23.07 49.86 15.98 2.02 7.96 3.14 23.68-9.56 43.93a100 100 0 0 1 11.38 6.5c22.23-35.66 8.25-61.22 7.42-62.67l-3.46-6.01-5.78 3.81c-12.96 8.55-30.38-2.71-38.5-9.09 4.8-6.08 10.79-16.03 11.3-28.32.43-10.39 9.15-16.62 12.88-18.81 3.42-2.02 5.02-6.03 3.88-9.77-.61-2-.6-5.62-.25-9.31 32.35 7.34 56.65 23.96 72.29 49.49 21.64 35.32 24.89 86.23 8.92 139.68-26.36 88.18-26.91 124.13-26.92 125.62a6.517 6.517 0 0 0 6.46 6.56c3.61-.02 6.54-2.86 6.58-6.45 0-.35.69-36.05 26.37-121.99 17.03-57 13.28-111.75-10.3-150.23Z" class="cls-4"/><path d="M1007.22 413.24a6.52 6.52 0 0 1-6.19 6.84c-.26.01-.52.06-.78.07 9.87.82 19.31 3.27 27.99 7.22 3.01-3.67 5.56-7.24 7.71-10.67a97.1 97.1 0 0 0-33.59-9.44c2.69.69 4.72 3.06 4.86 5.97Z" class="cls-4"/><path d="M938.34 439.76c14.54-18.9 36.93-31.41 61.9-32.7-.82-.06-1.63-.19-2.45-.23-36.18-1.66-69.72 16.86-88.32 46.34l11.15 6.73a86 86 0 0 1 17.73-20.14Z" class="cls-4"/><path d="M1078.83 501.5c1.09 23.71-7.31 46.19-23.65 63.3-16.35 17.12-38.39 26.55-62.05 26.55a6.521 6.521 0 0 1 0 13.04c27.26 0 52.65-10.86 71.48-30.58 18.82-19.71 28.5-45.6 27.24-72.91-1.49-32.25-18.96-60.71-44.52-77.69-2.15 3.45-4.65 7-7.53 10.62 22.39 14.71 37.73 39.52 39.02 67.67Z" class="cls-4"/><path d="M999.65 597.87a6.521 6.521 0 0 0-13.04 0s2.92 6.52 6.52 6.52 6.52-2.92 6.52-6.52" class="cls-4"/><path d="M1028.24 427.37c4.04 1.84 7.88 4.04 11.57 6.46 2.88-3.63 5.37-7.17 7.53-10.62a99 99 0 0 0-11.38-6.5c-2.15 3.43-4.71 6.99-7.71 10.67Z" class="cls-4"/><path d="M1000.25 420.15c-1.02-.08-2.03-.24-3.06-.29-21.93-1.02-42.76 6.55-58.84 19.9-5.36 6.96-9.68 14.76-12.63 23.22l11.51 6.95c8.42-27.69 33.53-47.98 63.03-49.79Z" class="cls-4"/><path d="M1000.38 407.05s-.09.01-.14.01c.71.05 1.41.13 2.12.2-.63-.16-1.29-.26-1.98-.21" class="cls-4"/><path d="M938.34 439.76c16.09-13.35 36.91-20.92 58.84-19.9 1.03.05 2.04.21 3.06.29.26-.02.52-.06.78-.07a6.52 6.52 0 0 0 6.19-6.84c-.15-2.91-2.17-5.29-4.86-5.97-.71-.07-1.41-.15-2.12-.2-24.97 1.29-47.36 13.79-61.9 32.7Z" class="cls-4"/><path d="M1277.05 794.65c-21.23-98.36-55.86-137.97-81.17-153.88-13.53-8.51-30.93-10.02-46.52-4.05-8.87 3.39-19 9.2-29.72 15.35-25.1 14.39-56.33 32.29-94.77 33.3a6.524 6.524 0 0 1-6.69-6.35 6.53 6.53 0 0 1 6.35-6.69c35.15-.92 63.56-17.21 88.63-31.57 11.17-6.41 21.73-12.46 31.55-16.21 19.41-7.43 41.14-5.48 58.12 5.19 27.43 17.25 64.79 59.38 86.98 162.17" class="cls-3"/><path d="M829.76 1034.8c-.77 0-1.55-.14-2.31-.43a6.515 6.515 0 0 1-3.78-8.41c.59-1.55 57.82-157.05-29.13-310.33C704.9 557.6 738.7 299.8 740.18 288.91c.48-3.57 3.78-6.05 7.34-5.58 3.57.49 6.07 3.77 5.58 7.34-.09.66-8.92 66.82-6.75 151.26 2 77.58 13.95 186.92 59.53 267.27 90.06 158.76 30.59 319.78 29.98 321.39-.99 2.6-3.46 4.2-6.09 4.2Z" class="cls-4"/><path d="M1315.5 1034.8c-1.17 0-2.35-.32-3.42-.98a6.52 6.52 0 0 1-2.12-8.97c.18-.33 24.02-45.08-25.71-208.94-29.22-96.29-66.98-132.93-93.51-146.71-14.18-7.37-31.64-7.45-46.7-.23-8.57 4.11-18.18 10.73-28.37 17.73-23.83 16.4-53.49 36.8-91.72 40.95-3.6.38-6.8-2.2-7.19-5.78s2.2-6.8 5.78-7.19c34.96-3.8 61.94-22.36 85.74-38.73 10.61-7.3 20.64-14.2 30.12-18.74 18.73-8.99 40.55-8.84 58.35.41 28.75 14.94 69.44 53.87 99.97 154.49 21.69 71.49 32.54 129.74 32.23 173.15-.23 33.08-7.12 45.17-7.91 46.44a6.5 6.5 0 0 1-5.55 3.09Z" class="cls-4"/><path d="M859.02 1035.62c-3.27 0-6.09-2.45-6.47-5.77l-2.72-23.58c-1.73-15.01-1.17-30.24 1.67-45.27 3.86-20.45 8.79-41.87 13.55-62.58 13.98-60.8 28.43-123.67 13.34-154.57-1.54-3.16-4.62-5.67-8.43-6.86-17.98-5.64-62.04-25.97-82.79-92.76-10.54-33.94-10.45-70.49.27-105.7l.14-.45c3.82-12.53 22.45-2.3 35.24-4.78 12.93-2.52 26.19 2.38 34.57 12.76 21.24 26.31 44.82 19.11 87.27 16.45 9.32-.58 26.66-1.67 39.39 14.03 31.87 39.3 16.89 168.36-45.81 394.54-4.35 15.7-6.01 31.83-4.94 47.95l.64 9.65c.24 3.59-2.48 6.7-6.07 6.94-3.59.23-6.7-2.48-6.94-6.07l-.64-9.65c-1.17-17.58.64-35.18 5.38-52.3 41.69-150.39 83.9-338.88 48.25-382.84-7.84-9.67-17.92-9.88-28.45-9.23-46.92 2.91-74.17 8.52-98.23-21.28-5.42-6.72-13.63-9.77-21.94-8.15-7.96 1.55-22.87-12.05-25.25-4.21l-.14.45c-9.95 32.69-10.05 66.59-.29 98.02 18.92 60.89 58.22 79.16 74.24 84.18 7.21 2.27 13.13 7.21 16.24 13.58 17.12 35.05 2.81 97.3-12.34 163.22-4.73 20.59-9.63 41.89-13.44 62.08-2.59 13.74-3.11 27.65-1.53 41.36l2.72 23.58a6.53 6.53 0 0 1-5.73 7.23c-.25.03-.51.04-.76.04Z" class="cls-4"/><path d="M1201.96 1034.8c-1.48 0-2.96-.5-4.18-1.52a6.517 6.517 0 0 1-.82-9.18c2.73-3.29 66.13-81.71-18.15-168.6-91.13-93.95-70.07-175.22-69.13-178.63a6.52 6.52 0 0 1 8.02-4.55c3.47.96 5.5 4.54 4.56 8-.26.96-19.59 77.95 65.92 166.1 92.61 95.47 19.54 185.15 18.79 186.05a6.51 6.51 0 0 1-5 2.34Z" class="cls-4"/><path d="M1229.81 1034.8a6.516 6.516 0 0 1-5.85-9.38c.05-.11 6.27-13.35 8.6-39.08 2.16-23.81 1.34-63.49-14.84-117.22-32.77-108.83 11.2-170.17 13.09-172.73a6.51 6.51 0 0 1 9.12-1.37 6.514 6.514 0 0 1 1.38 9.1c-.11.14-10.64 14.79-17.23 41.83-6.09 24.97-9.97 65.97 6.12 119.42 32.56 108.15 6.59 163.47 5.47 165.77a6.52 6.52 0 0 1-5.87 3.67Z" class="cls-4"/><path d="M896.39 1034.8a6.517 6.517 0 0 1-5.92-9.25c49.36-106.93 43.11-199.78 29.18-258.85-15.13-64.16-42.35-103.53-42.63-103.92a6.522 6.522 0 0 1 10.68-7.49c1.17 1.66 28.73 41.41 44.5 107.83 14.53 61.19 21.14 157.33-29.89 267.9a6.53 6.53 0 0 1-5.92 3.79Z" class="cls-4"/><path d="M909.42 403.49c-20.82 0-42.61-4.99-56.73-16.87-2.86-2.41-10.5.45-17.89 3.2-15.36 5.73-38.58 14.39-56.44-10.72a6.51 6.51 0 0 1 1.54-9.09c2.94-2.08 7.01-1.4 9.09 1.54 11.24 15.8 23.08 12.83 41.26 6.06 10.9-4.06 22.16-8.26 30.85-.96 17.63 14.84 52.62 16.86 76.27 10.24 13.03-3.65 18.97-8.82 20.19-12.44 6.3-18.69 8.55-30.66 8.55-35.63 0-6.3-18.07-10.39-34.02-13.99-8.94-2.02-18.18-4.11-27.2-6.97-21.89-6.93-23.42-29.37-24-37.82v-.06c-1.46-2.28-9.87-8.07-27.34-14.8-19.34-7.45-29.87-9.84-37.56-11.58-2.81-.64-5.24-1.19-7.58-1.87a6.52 6.52 0 0 1-4.43-8.09 6.515 6.515 0 0 1 8.09-4.43c1.95.57 4.2 1.08 6.8 1.67 7.62 1.72 19.14 4.33 39.37 12.12 34.77 13.4 35.39 22.25 35.62 25.58l.04.56c.78 11.44 3.13 22.54 14.92 26.28 8.5 2.69 17.46 4.72 26.13 6.68 23.72 5.36 44.2 9.99 44.18 26.72 0 7.89-3.37 22.39-9.23 39.79-3.05 9.04-13.36 16.44-29.03 20.83-9.29 2.6-20.23 4.05-31.45 4.05M881 280.17" class="cls-4"/><path d="M774.62 410.48c-1.52 0-3.53-.5-5.38-2.57-8.93-9.96-49.63-97.49-17.91-166.22 1.86-6.08 18.89-57.47 62.82-58.61 12.76-.32 23.54 1.96 32.03 6.82 8.94 5.12 13.17 14.92 10.78 24.97-2.37 9.98-10.51 16.78-20.72 17.32l-1.01.05c-10.02.47-20.08-3.29-27.59-10.26l-6.05-5.62a6.526 6.526 0 0 1-.34-9.22 6.526 6.526 0 0 1 9.22-.34l6.05 5.62c4.96 4.61 11.57 7.09 18.14 6.79l.92-.04c5.2-.28 7.91-3.96 8.71-7.32.81-3.41.03-8-4.58-10.64-6.38-3.66-14.86-5.38-25.21-5.1-36.13.94-50.64 49.23-50.79 49.72l-.35.94c-29.87 64.03 9.22 143.47 15.28 152.02.99.76 1.78 1.81 2.21 3.08a6.515 6.515 0 0 1-4.07 8.27c-.39.13-1.17.34-2.15.34Z" class="cls-4"/><path d="M965.02 360.9c-.13 0-.26 0-.4-.01-15.75-.95-25.72-5.68-29.64-14.04-5.31-11.34 3.18-23.41 4.17-24.74a6.53 6.53 0 0 1 9.12-1.38c2.89 2.13 3.51 6.2 1.4 9.1-1.31 1.81-4.62 7.8-2.86 11.52 1.68 3.54 8.46 5.92 18.61 6.53 3.59.22 6.33 3.31 6.12 6.9a6.523 6.523 0 0 1-6.5 6.13Z" class="cls-4"/><path d="M815.56 268.29c-2.19 0-4.32-1.1-5.56-3.1-15.01-24.36-4.47-42.74 3.21-49.06 2.78-2.29 6.88-1.89 9.18.89a6.516 6.516 0 0 1-.84 9.14c-1.4 1.21-12.85 12.05-.44 32.19 1.89 3.07.94 7.08-2.13 8.97-1.07.66-2.25.97-3.41.97Z" class="cls-4"/><path d="M919.79 267.81c-1.59 0-3.22-.16-4.86-.5l-.78-.16c-8.91-1.9-16.85-7.44-21.77-15.2l-3.85-6.07c-1.93-3.04-1.02-7.07 2.02-9s7.07-1.02 9 2.02l3.85 6.07c3.05 4.82 7.96 8.26 13.47 9.43l.66.14c5.69 1.17 9.17-2.12 10.54-5.56 1.39-3.48 1.1-8.29-3.86-11.39-4.12-2.57-9.26-4.6-15.29-6.02-30.49-7.19-53.9 25.59-54.13 25.92-2.06 2.95-6.13 3.66-9.08 1.6a6.524 6.524 0 0 1-1.6-9.08c1.16-1.65 28.79-40.33 67.8-31.13 7.42 1.75 13.88 4.33 19.2 7.65 11.03 6.89 12.5 18.67 9.06 27.28-3.5 8.77-11.36 14.01-20.39 14.01Z" class="cls-4"/><path d="M887.41 286.65c-3.17 0-5.95-2.31-6.44-5.54-1.74-11.46-.13-20.47 4.8-26.8 5.35-6.87 12.52-7.74 13.32-7.82 3.57-.34 6.77 2.28 7.11 5.87a6.515 6.515 0 0 1-5.73 7.1c-1.07.17-9.3 2.08-6.62 19.69.54 3.56-1.9 6.88-5.46 7.43-.33.05-.66.08-.99.08Z" class="cls-4"/><path d="M858.45 311.53c-3.6 0-6.52-2.92-6.52-6.52 0-2.18-.43-5.17-2.45-7.02-1.47-1.34-3.63-1.96-6.09-1.72-6.47.69-7.41 6.22-7.55 7.89-.3 3.56-3.38 6.3-6.97 6-3.56-.25-6.26-3.28-6.05-6.85.37-6.26 4.8-18.49 18.91-19.99l.46-.05c6.16-.56 11.87 1.24 16.08 5.08 3.06 2.79 6.71 7.95 6.71 16.65 0 3.6-2.92 6.52-6.52 6.52Z" class="cls-4"/><path d="M1284.83 585.54c-2.17 0-4.29-1.08-5.53-3.06-20.92-33.34-36.77-43.98-56.88-55.37-25.35-14.37-53.49-20.69-83.63-18.76-110.11 6.99-192.92-11.62-246.15-55.34-40.49-33.25-47.56-68.68-47.84-70.17a6.523 6.523 0 1 1 12.82-2.42c.06.3 6.82 32.94 44.15 63.2 34.84 28.23 104.11 60.13 236.21 51.71 32.7-2.07 63.29 4.79 90.89 20.43 21.08 11.95 39 23.93 61.5 59.79 1.91 3.05.99 7.07-2.06 8.99-1.08.68-2.27 1-3.46 1Z" class="cls-4"/></g><path d="M906.24 542.82c-118.35 0-214.64-96.29-214.64-214.64s96.29-214.64 214.64-214.64 214.64 96.29 214.64 214.64-96.29 214.64-214.64 214.64m0-415.8c-110.92 0-201.16 90.24-201.16 201.16s90.24 201.16 201.16 201.16 201.16-90.24 201.16-201.16-90.24-201.16-201.16-201.16" class="cls-4"/><path d="M906.24 556.65c-125.98 0-228.48-102.49-228.48-228.48S780.25 99.7 906.24 99.7s228.47 102.49 228.47 228.47-102.49 228.48-228.47 228.48m0-442.6c-118.07 0-214.12 96.06-214.12 214.12s96.06 214.12 214.12 214.12 214.12-96.06 214.12-214.12-96.06-214.12-214.12-214.12" class="cls-3"/><path d="M4315.98 1997.88H264.66V-471.6h4051.32ZM268 1994.55h4044.64V-468.26H268Z" class="cls-3" style="clip-path:url(#clippath-1)"/></svg>