<svg xmlns="http://www.w3.org/2000/svg" id="Layer_1" viewBox="0 0 1226.81 805.21"><defs><clipPath id="clippath"><circle cx="906.24" cy="328.18" r="207.9" class="cls-1"/></clipPath><clipPath id="clippath-1"><circle cx="1954.5" cy="407.54" r="401.46" class="cls-1"/></clipPath><style>.cls-1{fill:none}.cls-3{fill:#ecae7d}.cls-4{fill:#e9311a}.cls-5{fill:#fbf0e5}</style></defs><path d="M142.27 443.69c4.08 1.6 8.08 3.64 11.98 6.12 3.9 2.49 7.37 5.55 10.38 9.19q4.53 5.46 7.32 12.51c1.86 4.7 2.8 10.08 2.8 16.11 0 7.46-1.51 14.16-4.53 20.11s-7.32 11.05-12.91 15.31-12.25 7.5-19.97 9.72-16.38 3.33-25.96 3.33H42.94c-8.35 0-12.52-4.17-12.52-12.51V375.52c0-8.34 4.17-12.52 12.52-12.52h63.11c8.88 0 16.86 1.06 23.97 3.2 7.1 2.13 13.18 5.19 18.24 9.19 5.06 3.99 8.96 8.79 11.72 14.38 2.75 5.59 4.13 11.85 4.13 18.77 0 7.99-1.96 14.96-5.86 20.9-3.91 5.95-9.23 10.7-15.98 14.25m-38.48 58.58c7.85 0 13.96-1.77 18.34-5.33 4.37-3.55 6.56-8.43 6.56-14.64s-2.19-10.87-6.56-14.52c-4.37-3.63-10.22-5.46-17.53-5.46H77.3l-.27 39.94h26.77ZM77.56 396.82l-.27 36.48h21.44c6.43 0 11.52-1.6 15.27-4.79 3.75-3.2 5.63-7.63 5.63-13.31s-1.88-10.16-5.63-13.45c-3.75-3.28-8.84-4.93-15.27-4.93ZM256.77 399.49c7.99 0 15.8.98 23.43 2.93s14.42 5.15 20.37 9.58c5.94 4.44 10.74 10.3 14.38 17.58s5.46 16.24 5.46 26.9v67.37c0 8.17-4.09 12.25-12.25 12.25h-10.92c-7.99 0-11.98-4.08-11.98-12.25v-1.06c-5.68 5.15-12.12 9.23-19.31 12.25s-14.96 4.53-23.3 4.53-15.18-1.02-21.57-3.06-11.9-4.93-16.51-8.66c-4.62-3.73-8.17-8.16-10.65-13.31-2.49-5.15-3.73-10.92-3.73-17.31 0-6.92 1.37-13.18 4.13-18.77 2.75-5.59 6.61-10.38 11.58-14.38 4.97-3.99 10.96-7.06 17.98-9.19 7.01-2.13 14.87-3.2 23.57-3.2 5.15 0 10.29.53 15.44 1.6 5.15 1.06 10.12 2.4 14.91 3.99v-4.79c0-6.21-2.09-11.09-6.26-14.65-4.17-3.55-10.16-5.33-17.97-5.33-6.57 0-12.38.8-17.44 2.4s-9.19 3.38-12.38 5.33c-3.02 1.6-5.86 2.13-8.52 1.6s-4.97-2.66-6.92-6.39l-2.93-6.13c-2.31-4.26-3.06-7.68-2.26-10.25s2.62-4.75 5.46-6.52c6.57-4.08 14.25-7.28 23.03-9.58 8.79-2.3 17.18-3.46 25.17-3.46Zm-2.4 111.57c7.28 0 13.18-1.82 17.71-5.46s6.79-7.23 6.79-10.79v-10.92c-2.49-1.24-5.9-2.53-10.25-3.86s-8.92-2-13.71-2c-6.57 0-11.81 1.56-15.71 4.66-3.91 3.11-5.86 7.15-5.86 12.12s1.91 8.92 5.73 11.85c3.81 2.93 8.92 4.39 15.31 4.39ZM444.24 402.42c2.3.89 4.26 2.04 5.86 3.46s1.86 4.09.8 7.99l-5.06 19.97c-1.06 3.73-2.62 6.08-4.66 7.06s-4.22 1.02-6.52.13c-2.13-.71-4.39-1.33-6.79-1.86-2.4-.54-4.75-.8-7.06-.8-7.99 0-14.03 2.36-18.11 7.06-4.09 4.7-6.12 11.05-6.12 19.04v59.38c0 8.17-3.99 12.25-11.98 12.25h-22.1c-7.99 0-11.98-4.08-11.98-12.25V413.87c0-8.16 3.99-12.25 11.98-12.25h14.11c7.99 0 11.98 4.09 11.98 12.25v6.39c4.62-6.57 9.99-11.67 16.11-15.31s12.92-5.46 20.37-5.46c6.92 0 13.32.98 19.17 2.93M600.55 523.84c3.02 3.73 3.64 6.7 1.86 8.92q-2.67 3.33-8.52 3.33h-29.03c-4.09 0-7.5-1.06-10.25-3.19-2.76-2.13-5.37-5.06-7.86-8.79l-25.3-37.81-8.52 9.85v27.69c0 8.17-4.09 12.25-12.25 12.25h-21.57c-7.99 0-11.98-4.08-11.98-12.25V362.47q0-5.85 3.06-8.52c2.04-1.77 5.01-3.02 8.92-3.73l21.3-3.99c4.08-.89 7.19-.09 9.32 2.4s3.2 5.77 3.2 9.85v97.46l33.55-42.34c3.02-3.55 5.77-6.43 8.26-8.65 2.48-2.22 5.77-3.33 9.85-3.33h27.16c3.73 0 6.48 1.11 8.26 3.33 1.77 2.22 1.15 5.19-1.86 8.92l-41.81 49.53 44.2 60.45ZM1105.15 520.12c-1.81 0-3.5-.31-5.05-.95-1.55-.63-2.9-1.51-4.04-2.63a12.05 12.05 0 0 1-2.7-3.97q-.99-2.295-.99-4.98c0-2.685.33-3.45.99-4.99s1.56-2.87 2.7-3.99 2.49-2 4.04-2.64 3.24-.97 5.05-.97 3.47.32 5.03.97c1.57.65 2.92 1.53 4.06 2.64q1.71 1.68 2.7 3.99c.99 2.31.99 3.21.99 4.99s-.33 3.44-.99 4.98c-.66 1.53-1.56 2.85-2.7 3.97-1.15 1.12-2.5 1.99-4.06 2.63s-3.24.95-5.03.95m0-2.64c1.42 0 2.73-.25 3.95-.76s2.27-1.2 3.17-2.09c.89-.88 1.6-1.93 2.1-3.13.51-1.2.76-2.52.76-3.93s-.25-2.73-.76-3.93a9.6 9.6 0 0 0-2.1-3.13 9.7 9.7 0 0 0-3.17-2.08c-1.22-.51-2.53-.76-3.95-.76s-2.73.25-3.95.76-2.27 1.2-3.17 2.08c-.89.88-1.6 1.93-2.1 3.13-.51 1.2-.76 2.51-.76 3.93s.25 2.73.76 3.93q.765 1.8 2.1 3.15c1.335 1.35 1.95 1.59 3.17 2.08 1.22.5 2.53.75 3.95.75m.37-2.64q-1.605 0-3-.54c-.93-.36-1.74-.87-2.42-1.53s-1.22-1.43-1.6-2.33-.58-1.86-.58-2.91.19-2.05.58-2.94c.38-.89.92-1.67 1.6-2.33s1.49-1.17 2.42-1.53q1.395-.54 3-.54c1.27 0 2.35.21 3.26.63s1.68.96 2.33 1.6c.18.2.28.42.32.65s-.09.49-.39.76l-1.49 1.49c-.2.2-.42.32-.65.35-.24.04-.5-.09-.8-.39-.65-.6-1.43-.89-2.35-.89s-1.61.29-2.14.88-.8 1.34-.8 2.25c0 .87.26 1.6.78 2.2s1.24.89 2.16.89c.5 0 .94-.09 1.34-.26s.73-.4 1.01-.67c.3-.3.57-.43.8-.39s.45.16.65.35l1.49 1.49c.3.3.43.57.39.8-.04.24-.14.45-.32.65-.62.65-1.39 1.18-2.31 1.6s-2.01.64-3.28.64ZM87.53 696.08c.77 1.82.69 3.21-.22 4.16q-1.365 1.44-2.94 2.58c-2.3 1.72-5.19 3.04-8.68 3.95-3.5.91-7.06 1.36-10.69 1.36s-7.37-.53-10.91-1.58a26.7 26.7 0 0 1-9.54-5.09c-2.82-2.34-5.09-5.36-6.82-9.04-1.72-3.68-2.58-8.16-2.58-13.42v-24.98h-6.03c-4.79 0-7.18-2.39-7.18-7.18v-5.88c0-4.79 2.39-7.18 7.18-7.18h6.03v-15.64c0-2.39.62-4.09 1.87-5.1q1.86-1.5 5.31-2.22l13.63-2.44c2.39-.48 4.21.02 5.45 1.51s1.87 3.38 1.87 5.67v18.23h13.06c2.3 0 4.09.62 5.38 1.86 1.29 1.25 1.94 3.02 1.94 5.31v5.88c0 2.3-.65 4.07-1.94 5.31s-3.09 1.86-5.38 1.86H63.28v21.82c0 3.35.69 5.6 2.08 6.74 1.39 1.15 3.04 1.72 4.95 1.72 1.05 0 2.06-.19 3.01-.57q1.44-.57 2.58-1.29c1.91-1.34 3.35-1.65 4.31-.93s1.77 1.79 2.44 3.23l4.88 11.34ZM131.59 708.14c-5.84 0-11.24-.93-16.22-2.8-4.98-1.86-9.26-4.5-12.85-7.89-3.59-3.4-6.39-7.39-8.4-11.99s-3.01-9.62-3.01-15.07 1-10.48 3.01-15.07 4.81-8.59 8.4-11.98c3.59-3.4 7.87-6.03 12.85-7.9 4.97-1.86 10.38-2.8 16.22-2.8s11.36.93 16.29 2.8 9.19 4.5 12.77 7.9 6.39 7.39 8.4 11.98 3.01 9.62 3.01 15.07-1 10.48-3.01 15.07-4.81 8.59-8.4 11.99-7.85 6.03-12.77 7.89c-4.93 1.86-10.36 2.8-16.29 2.8m0-23.97c3.64 0 6.65-1.29 9.04-3.88 2.39-2.58 3.59-5.88 3.59-9.9s-1.2-7.32-3.59-9.9-5.41-3.88-9.04-3.88-6.65 1.29-9.04 3.88c-2.39 2.58-3.59 5.88-3.59 9.9s1.2 7.32 3.59 9.9 5.41 3.88 9.04 3.88" class="cls-5"/><rect width="143.09" height="27.34" x="30.42" y="745.57" class="cls-5" rx="11.07" ry="11.07"/><path d="M346.89 680.51c4.08 1.6 8.08 3.64 11.98 6.12 3.9 2.49 7.37 5.55 10.38 9.19q4.53 5.46 7.32 12.51c1.86 4.7 2.8 10.08 2.8 16.11 0 7.46-1.51 14.16-4.53 20.11s-7.32 11.05-12.91 15.31-12.25 7.5-19.97 9.72-16.38 3.33-25.96 3.33h-68.44c-8.35 0-12.52-4.17-12.52-12.51V612.34c0-8.34 4.17-12.52 12.52-12.52h63.11c8.88 0 16.86 1.06 23.97 3.2 7.1 2.13 13.18 5.19 18.24 9.19 5.06 3.99 8.96 8.79 11.72 14.38 2.75 5.59 4.13 11.85 4.13 18.77 0 7.99-1.96 14.96-5.86 20.9-3.91 5.95-9.23 10.7-15.98 14.25m-38.48 58.58c7.85 0 13.96-1.77 18.34-5.33 4.37-3.55 6.56-8.43 6.56-14.64s-2.19-10.87-6.56-14.52c-4.37-3.63-10.22-5.46-17.53-5.46h-27.3l-.27 39.94h26.77Zm-26.23-105.45-.27 36.48h21.44c6.43 0 11.52-1.6 15.27-4.79 3.75-3.2 5.63-7.63 5.63-13.31s-1.88-10.16-5.63-13.45c-3.75-3.28-8.84-4.93-15.27-4.93ZM461.39 636.3c7.99 0 15.8.98 23.43 2.93s14.42 5.15 20.37 9.58c5.94 4.44 10.74 10.3 14.38 17.58s5.46 16.24 5.46 26.9v67.37c0 8.17-4.09 12.25-12.25 12.25h-10.92c-7.99 0-11.98-4.08-11.98-12.25v-1.06c-5.68 5.15-12.12 9.23-19.31 12.25s-14.96 4.53-23.3 4.53-15.18-1.02-21.57-3.06-11.9-4.93-16.51-8.66c-4.62-3.73-8.17-8.16-10.65-13.31-2.49-5.15-3.73-10.92-3.73-17.31 0-6.92 1.37-13.18 4.13-18.77 2.75-5.59 6.61-10.38 11.58-14.38 4.97-3.99 10.96-7.06 17.98-9.19 7.01-2.13 14.87-3.2 23.57-3.2 5.15 0 10.29.53 15.44 1.6 5.15 1.06 10.12 2.4 14.91 3.99v-4.79c0-6.21-2.09-11.09-6.26-14.65-4.17-3.55-10.16-5.33-17.97-5.33-6.57 0-12.38.8-17.44 2.4s-9.19 3.38-12.38 5.33c-3.02 1.6-5.86 2.13-8.52 1.6s-4.97-2.66-6.92-6.39l-2.93-6.13c-2.31-4.26-3.06-7.68-2.26-10.25s2.62-4.75 5.46-6.52c6.57-4.08 14.25-7.28 23.03-9.58 8.79-2.3 17.18-3.46 25.17-3.46Zm-2.4 111.57c7.28 0 13.18-1.82 17.71-5.46s6.79-7.23 6.79-10.79V720.7c-2.49-1.24-5.9-2.53-10.25-3.86s-8.92-2-13.71-2c-6.57 0-11.81 1.56-15.71 4.66-3.91 3.11-5.86 7.15-5.86 12.12s1.91 8.92 5.73 11.85c3.81 2.93 8.92 4.39 15.31 4.39ZM607.05 776.64c-5.86 0-11.58-.53-17.18-1.6-5.59-1.07-10.78-2.49-15.58-4.26-4.79-1.77-9.19-3.82-13.18-6.13-3.99-2.3-7.32-4.7-9.98-7.19-3.02-2.84-4.75-5.64-5.19-8.39-.45-2.75.93-5.9 4.13-9.45l6.39-7.72c3.02-3.73 5.99-5.37 8.92-4.93 2.93.45 5.9 1.64 8.92 3.6 4.61 3.38 9.72 6.17 15.31 8.39s11.49 3.33 17.71 3.33c8.34 0 12.52-2.66 12.52-7.99 0-3.19-1.73-5.68-5.19-7.46-3.46-1.77-7.32-3.37-11.58-4.79-5.86-1.77-11.81-3.73-17.84-5.86-6.04-2.13-11.45-4.84-16.24-8.12s-8.7-7.32-11.72-12.12c-3.02-4.79-4.53-10.74-4.53-17.84 0-12.96 4.93-23.21 14.78-30.76 9.85-7.54 23.12-11.32 39.81-11.32 4.79 0 9.59.4 14.38 1.2s9.36 1.86 13.71 3.2c4.35 1.33 8.34 2.89 11.98 4.66 3.64 1.78 6.61 3.64 8.92 5.59 3.02 2.66 4.7 5.33 5.06 7.99.35 2.66-1.06 6.04-4.26 10.12l-5.59 6.92c-2.31 3.02-4.97 4.62-7.99 4.79-3.02.18-6.04-.71-9.05-2.66a51.2 51.2 0 0 0-12.12-6.39c-4.35-1.6-9.19-2.4-14.51-2.4-3.73 0-6.62.67-8.65 2q-3.06 1.995-3.06 5.19c0 3.38 2.75 5.95 8.26 7.72 5.5 1.78 12.42 4.17 20.77 7.19 5.5 2.13 10.56 4.49 15.18 7.06 4.61 2.58 8.61 5.5 11.98 8.79s6.03 7.1 7.99 11.45c1.95 4.35 2.93 9.45 2.93 15.31 0 6.75-1.38 12.78-4.13 18.11s-6.57 9.81-11.45 13.45c-4.89 3.64-10.78 6.44-17.71 8.39-6.92 1.95-14.56 2.93-22.9 2.93ZM710.37 617.93q-5.595 0-10.65-2.13a27.7 27.7 0 0 1-8.92-5.99c-2.58-2.57-4.57-5.55-5.99-8.92q-2.13-5.055-2.13-10.65c0-5.595.71-7.54 2.13-10.92 1.42-3.37 3.42-6.3 5.99-8.79 2.57-2.48 5.55-4.43 8.92-5.86q5.055-2.13 10.65-2.13c5.595 0 7.54.71 10.92 2.13 3.37 1.42 6.3 3.38 8.79 5.86 2.48 2.49 4.44 5.42 5.86 8.79q2.13 5.07 2.13 10.92c0 5.85-.71 7.28-2.13 10.65a28.8 28.8 0 0 1-5.86 8.92c-2.49 2.58-5.42 4.57-8.79 5.99s-7.02 2.13-10.92 2.13m-10.85 154.98c-8.21 0-12.32-4.08-12.32-12.25V650.68c0-8.16 4.11-12.25 12.32-12.25h21.96c8.21 0 12.32 4.09 12.32 12.25v109.98c0 8.17-4.11 12.25-12.32 12.25ZM829.4 776.37c-10.48 0-20.15-1.73-29.03-5.19s-16.56-8.34-23.03-14.65c-6.48-6.3-11.54-13.71-15.18-22.24q-5.46-12.78-5.46-27.96c0-15.18 1.82-19.44 5.46-27.96q5.46-12.78 15.18-22.23c6.48-6.3 14.15-11.18 23.03-14.65 8.87-3.46 18.55-5.19 29.03-5.19 11.36 0 21.39 1.91 30.09 5.72 8.7 3.82 16.24 8.83 22.63 15.04 1.77 1.96 2.93 3.99 3.46 6.12s-.71 4.71-3.73 7.72l-14.11 14.11c-1.96 1.78-4 2.84-6.12 3.2-2.13.36-4.71-.89-7.72-3.73-3.37-3.02-6.97-5.23-10.78-6.66a33.7 33.7 0 0 0-11.85-2.13c-8.52 0-15.49 2.89-20.9 8.65-5.42 5.77-8.12 13.09-8.12 21.97s2.66 16.25 7.99 22.1c5.33 5.86 12.34 8.79 21.04 8.79 4.08 0 8.03-.75 11.85-2.26s7.41-3.77 10.78-6.79c3.02-2.84 5.59-4.08 7.72-3.73 2.13.36 4.17 1.42 6.12 3.2l14.11 14.11c3.02 3.02 4.26 5.59 3.73 7.72s-1.69 4.18-3.46 6.13c-6.39 6.22-13.94 11.23-22.63 15.04-8.7 3.82-18.73 5.72-30.09 5.72ZM957.75 776.64c-5.86 0-11.58-.53-17.18-1.6-5.59-1.07-10.78-2.49-15.58-4.26-4.79-1.77-9.19-3.82-13.18-6.13-3.99-2.3-7.32-4.7-9.98-7.19-3.02-2.84-4.75-5.64-5.19-8.39-.45-2.75.93-5.9 4.13-9.45l6.39-7.72c3.02-3.73 5.99-5.37 8.92-4.93 2.93.45 5.9 1.64 8.92 3.6 4.61 3.38 9.72 6.17 15.31 8.39s11.49 3.33 17.71 3.33c8.34 0 12.52-2.66 12.52-7.99 0-3.19-1.73-5.68-5.19-7.46-3.46-1.77-7.32-3.37-11.58-4.79-5.86-1.77-11.81-3.73-17.84-5.86-6.04-2.13-11.45-4.84-16.24-8.12s-8.7-7.32-11.72-12.12c-3.02-4.79-4.53-10.74-4.53-17.84 0-12.96 4.93-23.21 14.78-30.76 9.85-7.54 23.12-11.32 39.81-11.32 4.79 0 9.59.4 14.38 1.2s9.36 1.86 13.71 3.2c4.35 1.33 8.34 2.89 11.98 4.66 3.64 1.78 6.61 3.64 8.92 5.59 3.02 2.66 4.7 5.33 5.06 7.99.35 2.66-1.06 6.04-4.26 10.12l-5.59 6.92c-2.31 3.02-4.97 4.62-7.99 4.79-3.02.18-6.04-.71-9.05-2.66a51.2 51.2 0 0 0-12.12-6.39c-4.35-1.6-9.19-2.4-14.51-2.4-3.73 0-6.62.67-8.65 2q-3.06 1.995-3.06 5.19c0 3.38 2.75 5.95 8.26 7.72 5.5 1.78 12.42 4.17 20.77 7.19 5.5 2.13 10.56 4.49 15.18 7.06 4.61 2.58 8.61 5.5 11.98 8.79s6.03 7.1 7.99 11.45c1.95 4.35 2.93 9.45 2.93 15.31 0 6.75-1.38 12.78-4.13 18.11s-6.57 9.81-11.45 13.45c-4.89 3.64-10.78 6.44-17.71 8.39-6.92 1.95-14.56 2.93-22.9 2.93Z" class="cls-5"/><circle cx="906.24" cy="328.18" r="208.27" class="cls-5"/><g style="clip-path:url(#clippath)"><path d="M1078.41 487.93c-2.02 18.66-10.03 35.99-23.23 49.82-16.35 17.12-38.39 26.55-62.05 26.55a6.521 6.521 0 0 0 0 13.04c27.26 0 52.65-10.86 71.48-30.58 11.65-12.2 19.79-26.77 24.01-42.58l-10.21-16.24Z" class="cls-3"/><path d="M1049.08 326.96c-4.3 4.21-4.84-3.84-10.86-3.9-6.02-.07-6.73 7.97-10.94 3.66-4.96-5.07 5.03-13.59 11.05-13.52s16.1 8.53 10.75 13.76" class="cls-4"/><path d="M1120.52 604.39c-2.29 0-4.51-1.21-5.7-3.35-11.94-21.43-1.96-111.53-.78-121.73a6.506 6.506 0 0 1 7.23-5.73c3.58.41 6.14 3.65 5.73 7.22-4.26 36.93-8.24 100.51-.78 113.89 1.75 3.15.62 7.12-2.52 8.87a6.5 6.5 0 0 1-3.17.83Z" class="cls-5"/><path d="M1005.31 466.21c-3.01 2.22-5.95 4.36-8.8 6.44-5.89 4.29-11.37 8.32-16.53 12.34l30.09 8.33 7.45 7.93-22.9 14.08-17.95 8.52-29.05 3.53c-3.1 12.28-2.48 25.42 2.41 36.94 4.28 10.1 15.58 27.04 43.11 27.04 23.66 0 45.7-9.43 62.05-26.55 16.34-17.11 24.74-39.59 23.65-63.3-1.29-28.15-16.63-52.96-39.02-67.67-8.12 10.24-19.25 21.12-34.5 32.38Z" class="cls-1"/><path d="m920.61 459.9 5.1 3.08c2.95-8.46 7.28-16.26 12.63-23.22a86.2 86.2 0 0 0-17.73 20.14" class="cls-1"/><path d="m937.22 469.94 9.83 5.94 17.52 4.85c7.38-6.22 15.39-12.15 24.25-18.61 2.84-2.07 5.75-4.19 8.74-6.4 13.5-9.97 23.42-19.49 30.68-28.35-8.68-3.95-18.12-6.4-27.99-7.22-29.5 1.81-54.61 22.1-63.03 49.79" class="cls-1"/><path d="M986.61 597.87c0-3.6 2.92-6.52 6.52-6.52-27.53 0-38.83-16.94-43.11-27.04-4.89-11.52-5.51-24.66-2.41-36.94l-10.08 1.22-3.63.84c-2.4 13.46-1.19 27.49 4.11 39.97 9.43 22.24 29.52 34.99 55.11 34.99-3.6 0-6.52-2.92-6.52-6.52Z" class="cls-4"/><path d="M997.56 455.72c-2.99 2.21-5.9 4.33-8.74 6.4-8.87 6.46-16.88 12.39-24.25 18.61l15.41 4.26c5.16-4.02 10.64-8.04 16.53-12.34 2.86-2.08 5.79-4.22 8.8-6.44 15.25-11.26 26.38-22.14 34.5-32.38-3.69-2.42-7.53-4.62-11.57-6.46-7.26 8.86-17.17 18.38-30.68 28.35" class="cls-4"/><path d="M1118.23 325.71c-18.42-30.07-48.7-49.72-87.58-56.83l-6.4-1.06-1.27 6.25c-.57 2.8-2.11 11.44-1.13 18.57-6.25 4.32-15.97 13.33-16.57 27.76-.45 10.87-7.47 19.78-10.46 23.11a9.25 9.25 0 0 0-2.38 6.82c.16 2.52 1.3 4.82 3.22 6.48 6.9 5.96 29.18 23.07 49.86 15.98 2.02 7.96 3.14 23.68-9.56 43.93a100 100 0 0 1 11.38 6.5c22.23-35.66 8.25-61.22 7.42-62.67l-3.46-6.01-5.78 3.81c-12.96 8.55-30.38-2.71-38.5-9.09 4.8-6.08 10.79-16.03 11.3-28.32.43-10.39 9.15-16.62 12.88-18.81 3.42-2.02 5.02-6.03 3.88-9.77-.61-2-.6-5.62-.25-9.31 32.35 7.34 56.65 23.96 72.29 49.49 21.64 35.32 24.89 86.23 8.92 139.68-26.36 88.18-26.91 124.13-26.92 125.62a6.517 6.517 0 0 0 6.46 6.56c3.61-.02 6.54-2.86 6.58-6.45 0-.35.69-36.05 26.37-121.99 17.03-57 13.28-111.75-10.3-150.23Z" class="cls-4"/><path d="M1007.22 413.24a6.52 6.52 0 0 1-6.19 6.84c-.26.01-.52.06-.78.07 9.87.82 19.31 3.27 27.99 7.22 3.01-3.67 5.56-7.24 7.71-10.67a97.1 97.1 0 0 0-33.59-9.44c2.69.69 4.72 3.06 4.86 5.97Z" class="cls-4"/><path d="M938.34 439.76c14.54-18.9 36.93-31.41 61.9-32.7-.82-.06-1.63-.19-2.45-.23-36.18-1.66-69.72 16.86-88.32 46.34l11.15 6.73a86 86 0 0 1 17.73-20.14Z" class="cls-4"/><path d="M1078.83 501.5c1.09 23.71-7.31 46.19-23.65 63.3-16.35 17.12-38.39 26.55-62.05 26.55a6.521 6.521 0 0 1 0 13.04c27.26 0 52.65-10.86 71.48-30.58 18.82-19.71 28.5-45.6 27.24-72.91-1.49-32.25-18.96-60.71-44.52-77.69-2.15 3.45-4.65 7-7.53 10.62 22.39 14.71 37.73 39.52 39.02 67.67Z" class="cls-4"/><path d="M999.65 597.87a6.521 6.521 0 0 0-13.04 0s2.92 6.52 6.52 6.52 6.52-2.92 6.52-6.52" class="cls-4"/><path d="M1028.24 427.37c4.04 1.84 7.88 4.04 11.57 6.46 2.88-3.63 5.37-7.17 7.53-10.62a99 99 0 0 0-11.38-6.5c-2.15 3.43-4.71 6.99-7.71 10.67Z" class="cls-4"/><path d="M1000.25 420.15c-1.02-.08-2.03-.24-3.06-.29-21.93-1.02-42.76 6.55-58.84 19.9-5.36 6.96-9.68 14.76-12.63 23.22l11.51 6.95c8.42-27.69 33.53-47.98 63.03-49.79Z" class="cls-4"/><path d="M1000.38 407.05s-.09.01-.14.01c.71.05 1.41.13 2.12.2-.63-.16-1.29-.26-1.98-.21" class="cls-4"/><path d="M938.34 439.76c16.09-13.35 36.91-20.92 58.84-19.9 1.03.05 2.04.21 3.06.29.26-.02.52-.06.78-.07a6.52 6.52 0 0 0 6.19-6.84c-.15-2.91-2.17-5.29-4.86-5.97-.71-.07-1.41-.15-2.12-.2-24.97 1.29-47.36 13.79-61.9 32.7Z" class="cls-4"/><path d="M1277.05 794.65c-21.23-98.36-55.86-137.97-81.17-153.88-13.53-8.51-30.93-10.02-46.52-4.05-8.87 3.39-19 9.2-29.72 15.35-25.1 14.39-56.33 32.29-94.77 33.3a6.524 6.524 0 0 1-6.69-6.35 6.53 6.53 0 0 1 6.35-6.69c35.15-.92 63.56-17.21 88.63-31.57 11.17-6.41 21.73-12.46 31.55-16.21 19.41-7.43 41.14-5.48 58.12 5.19 27.43 17.25 64.79 59.38 86.98 162.17" class="cls-3"/><path d="M829.76 1034.8c-.77 0-1.55-.14-2.31-.43a6.515 6.515 0 0 1-3.78-8.41c.59-1.55 57.82-157.05-29.13-310.33C704.9 557.6 738.7 299.8 740.18 288.91c.48-3.57 3.78-6.05 7.34-5.58 3.57.49 6.07 3.77 5.58 7.34-.09.66-8.92 66.82-6.75 151.26 2 77.58 13.95 186.92 59.53 267.27 90.06 158.76 30.59 319.78 29.98 321.39-.99 2.6-3.46 4.2-6.09 4.2Z" class="cls-4"/><path d="M1315.5 1034.8c-1.17 0-2.35-.32-3.42-.98a6.52 6.52 0 0 1-2.12-8.97c.18-.33 24.02-45.08-25.71-208.94-29.22-96.29-66.98-132.93-93.51-146.71-14.18-7.37-31.64-7.45-46.7-.23-8.57 4.11-18.18 10.73-28.37 17.73-23.83 16.4-53.49 36.8-91.72 40.95-3.6.38-6.8-2.2-7.19-5.78s2.2-6.8 5.78-7.19c34.96-3.8 61.94-22.36 85.74-38.73 10.61-7.3 20.64-14.2 30.12-18.74 18.73-8.99 40.55-8.84 58.35.41 28.75 14.94 69.44 53.87 99.97 154.49 21.69 71.49 32.54 129.74 32.23 173.15-.23 33.08-7.12 45.17-7.91 46.44a6.5 6.5 0 0 1-5.55 3.09Z" class="cls-4"/><path d="M859.02 1035.62c-3.27 0-6.09-2.45-6.47-5.77l-2.72-23.58c-1.73-15.01-1.17-30.24 1.67-45.27 3.86-20.45 8.79-41.87 13.55-62.58 13.98-60.8 28.43-123.67 13.34-154.57-1.54-3.16-4.62-5.67-8.43-6.86-17.98-5.64-62.04-25.97-82.79-92.76-10.54-33.94-10.45-70.49.27-105.7l.14-.45c3.82-12.53 22.45-2.3 35.24-4.78 12.93-2.52 26.19 2.38 34.57 12.76 21.24 26.31 44.82 19.11 87.27 16.45 9.32-.58 26.66-1.67 39.39 14.03 31.87 39.3 16.89 168.36-45.81 394.54-4.35 15.7-6.01 31.83-4.94 47.95l.64 9.65c.24 3.59-2.48 6.7-6.07 6.94-3.59.23-6.7-2.48-6.94-6.07l-.64-9.65c-1.17-17.58.64-35.18 5.38-52.3 41.69-150.39 83.9-338.88 48.25-382.84-7.84-9.67-17.92-9.88-28.45-9.23-46.92 2.91-74.17 8.52-98.23-21.28-5.42-6.72-13.63-9.77-21.94-8.15-7.96 1.55-22.87-12.05-25.25-4.21l-.14.45c-9.95 32.69-10.05 66.59-.29 98.02 18.92 60.89 58.22 79.16 74.24 84.18 7.21 2.27 13.13 7.21 16.24 13.58 17.12 35.05 2.81 97.3-12.34 163.22-4.73 20.59-9.63 41.89-13.44 62.08-2.59 13.74-3.11 27.65-1.53 41.36l2.72 23.58a6.53 6.53 0 0 1-5.73 7.23c-.25.03-.51.04-.76.04Z" class="cls-4"/><path d="M1201.96 1034.8c-1.48 0-2.96-.5-4.18-1.52a6.517 6.517 0 0 1-.82-9.18c2.73-3.29 66.13-81.71-18.15-168.6-91.13-93.95-70.07-175.22-69.13-178.63a6.52 6.52 0 0 1 8.02-4.55c3.47.96 5.5 4.54 4.56 8-.26.96-19.59 77.95 65.92 166.1 92.61 95.47 19.54 185.15 18.79 186.05a6.51 6.51 0 0 1-5 2.34Z" class="cls-4"/><path d="M1229.81 1034.8a6.516 6.516 0 0 1-5.85-9.38c.05-.11 6.27-13.35 8.6-39.08 2.16-23.81 1.34-63.49-14.84-117.22-32.77-108.83 11.2-170.17 13.09-172.73a6.51 6.51 0 0 1 9.12-1.37 6.514 6.514 0 0 1 1.38 9.1c-.11.14-10.64 14.79-17.23 41.83-6.09 24.97-9.97 65.97 6.12 119.42 32.56 108.15 6.59 163.47 5.47 165.77a6.52 6.52 0 0 1-5.87 3.67Z" class="cls-4"/><path d="M896.39 1034.8a6.517 6.517 0 0 1-5.92-9.25c49.36-106.93 43.11-199.78 29.18-258.85-15.13-64.16-42.35-103.53-42.63-103.92a6.522 6.522 0 0 1 10.68-7.49c1.17 1.66 28.73 41.41 44.5 107.83 14.53 61.19 21.14 157.33-29.89 267.9a6.53 6.53 0 0 1-5.92 3.79Z" class="cls-4"/><path d="M909.42 403.49c-20.82 0-42.61-4.99-56.73-16.87-2.86-2.41-10.5.45-17.89 3.2-15.36 5.73-38.58 14.39-56.44-10.72a6.51 6.51 0 0 1 1.54-9.09c2.94-2.08 7.01-1.4 9.09 1.54 11.24 15.8 23.08 12.83 41.26 6.06 10.9-4.06 22.16-8.26 30.85-.96 17.63 14.84 52.62 16.86 76.27 10.24 13.03-3.65 18.97-8.82 20.19-12.44 6.3-18.69 8.55-30.66 8.55-35.63 0-6.3-18.07-10.39-34.02-13.99-8.94-2.02-18.18-4.11-27.2-6.97-21.89-6.93-23.42-29.37-24-37.82v-.06c-1.46-2.28-9.87-8.07-27.34-14.8-19.34-7.45-29.87-9.84-37.56-11.58-2.81-.64-5.24-1.19-7.58-1.87a6.52 6.52 0 0 1-4.43-8.09 6.515 6.515 0 0 1 8.09-4.43c1.95.57 4.2 1.08 6.8 1.67 7.62 1.72 19.14 4.33 39.37 12.12 34.77 13.4 35.39 22.25 35.62 25.58l.04.56c.78 11.44 3.13 22.54 14.92 26.28 8.5 2.69 17.46 4.72 26.13 6.68 23.72 5.36 44.2 9.99 44.18 26.72 0 7.89-3.37 22.39-9.23 39.79-3.05 9.04-13.36 16.44-29.03 20.83-9.29 2.6-20.23 4.05-31.45 4.05M881 280.17" class="cls-4"/><path d="M774.62 410.48c-1.52 0-3.53-.5-5.38-2.57-8.93-9.96-49.63-97.49-17.91-166.22 1.86-6.08 18.89-57.47 62.82-58.61 12.76-.32 23.54 1.96 32.03 6.82 8.94 5.12 13.17 14.92 10.78 24.97-2.37 9.98-10.51 16.78-20.72 17.32l-1.01.05c-10.02.47-20.08-3.29-27.59-10.26l-6.05-5.62a6.526 6.526 0 0 1-.34-9.22 6.526 6.526 0 0 1 9.22-.34l6.05 5.62c4.96 4.61 11.57 7.09 18.14 6.79l.92-.04c5.2-.28 7.91-3.96 8.71-7.32.81-3.41.03-8-4.58-10.64-6.38-3.66-14.86-5.38-25.21-5.1-36.13.94-50.64 49.23-50.79 49.72l-.35.94c-29.87 64.03 9.22 143.47 15.28 152.02.99.76 1.78 1.81 2.21 3.08a6.515 6.515 0 0 1-4.07 8.27c-.39.13-1.17.34-2.15.34Z" class="cls-4"/><path d="M965.02 360.9c-.13 0-.26 0-.4-.01-15.75-.95-25.72-5.68-29.64-14.04-5.31-11.34 3.18-23.41 4.17-24.74a6.53 6.53 0 0 1 9.12-1.38c2.89 2.13 3.51 6.2 1.4 9.1-1.31 1.81-4.62 7.8-2.86 11.52 1.68 3.54 8.46 5.92 18.61 6.53 3.59.22 6.33 3.31 6.12 6.9a6.523 6.523 0 0 1-6.5 6.13Z" class="cls-4"/><path d="M815.56 268.29c-2.19 0-4.32-1.1-5.56-3.1-15.01-24.36-4.47-42.74 3.21-49.06 2.78-2.29 6.88-1.89 9.18.89a6.516 6.516 0 0 1-.84 9.14c-1.4 1.21-12.85 12.05-.44 32.19 1.89 3.07.94 7.08-2.13 8.97-1.07.66-2.25.97-3.41.97Z" class="cls-4"/><path d="M919.79 267.81c-1.59 0-3.22-.16-4.86-.5l-.78-.16c-8.91-1.9-16.85-7.44-21.77-15.2l-3.85-6.07c-1.93-3.04-1.02-7.07 2.02-9s7.07-1.02 9 2.02l3.85 6.07c3.05 4.82 7.96 8.26 13.47 9.43l.66.14c5.69 1.17 9.17-2.12 10.54-5.56 1.39-3.48 1.1-8.29-3.86-11.39-4.12-2.57-9.26-4.6-15.29-6.02-30.49-7.19-53.9 25.59-54.13 25.92-2.06 2.95-6.13 3.66-9.08 1.6a6.524 6.524 0 0 1-1.6-9.08c1.16-1.65 28.79-40.33 67.8-31.13 7.42 1.75 13.88 4.33 19.2 7.65 11.03 6.89 12.5 18.67 9.06 27.28-3.5 8.77-11.36 14.01-20.39 14.01Z" class="cls-4"/><path d="M887.41 286.65c-3.17 0-5.95-2.31-6.44-5.54-1.74-11.46-.13-20.47 4.8-26.8 5.35-6.87 12.52-7.74 13.32-7.82 3.57-.34 6.77 2.28 7.11 5.87a6.515 6.515 0 0 1-5.73 7.1c-1.07.17-9.3 2.08-6.62 19.69.54 3.56-1.9 6.88-5.46 7.43-.33.05-.66.08-.99.08Z" class="cls-4"/><path d="M858.45 311.53c-3.6 0-6.52-2.92-6.52-6.52 0-2.18-.43-5.17-2.45-7.02-1.47-1.34-3.63-1.96-6.09-1.72-6.47.69-7.41 6.22-7.55 7.89-.3 3.56-3.38 6.3-6.97 6-3.56-.25-6.26-3.28-6.05-6.85.37-6.26 4.8-18.49 18.91-19.99l.46-.05c6.16-.56 11.87 1.24 16.08 5.08 3.06 2.79 6.71 7.95 6.71 16.65 0 3.6-2.92 6.52-6.52 6.52Z" class="cls-4"/><path d="M1284.83 585.54c-2.17 0-4.29-1.08-5.53-3.06-20.92-33.34-36.77-43.98-56.88-55.37-25.35-14.37-53.49-20.69-83.63-18.76-110.11 6.99-192.92-11.62-246.15-55.34-40.49-33.25-47.56-68.68-47.84-70.17a6.523 6.523 0 1 1 12.82-2.42c.06.3 6.82 32.94 44.15 63.2 34.84 28.23 104.11 60.13 236.21 51.71 32.7-2.07 63.29 4.79 90.89 20.43 21.08 11.95 39 23.93 61.5 59.79 1.91 3.05.99 7.07-2.06 8.99-1.08.68-2.27 1-3.46 1Z" class="cls-4"/></g><path d="M906.24 542.82c-118.35 0-214.64-96.29-214.64-214.64s96.29-214.64 214.64-214.64 214.64 96.29 214.64 214.64-96.29 214.64-214.64 214.64m0-415.8c-110.92 0-201.16 90.24-201.16 201.16s90.24 201.16 201.16 201.16 201.16-90.24 201.16-201.16-90.24-201.16-201.16-201.16" class="cls-4"/><path d="M906.24 556.65c-125.98 0-228.48-102.49-228.48-228.48S780.25 99.7 906.24 99.7s228.47 102.49 228.47 228.47-102.49 228.48-228.47 228.48m0-442.6c-118.07 0-214.12 96.06-214.12 214.12s96.06 214.12 214.12 214.12 214.12-96.06 214.12-214.12-96.06-214.12-214.12-214.12" class="cls-3"/><path d="M805.06 87.98c.89.66 1.25 1.33 1.09 2s-.68 1.24-1.57 1.71l-6.17 3.24c-.88.46-1.61.55-2.18.26s-1.26-.79-2.07-1.49l-3.2-2.73-14.76 7.76.38 4.22c.12 1.07.15 1.91.08 2.53s-.54 1.17-1.42 1.63l-5.82 3.06c-.88.47-1.65.57-2.3.32s-.99-.93-1.03-2.03l-1.64-40.65c-.06-2.17.73-3.7 2.38-4.57l.64-.33c1.61-.85 3.3-.63 5.05.65l32.55 24.4Zm-20.33-2.41-10.62-9.14 1.28 14.05ZM838.96 36.4c1.92-.55 3.16.15 3.73 2.11L852.64 73c.37 1.29.26 2.32-.33 3.08-.6.76-1.44 1.3-2.53 1.61l-.63.18c-1 .29-1.95.3-2.84.04s-1.87-.76-2.94-1.49l-22.59-14.91 5.6 19.4c.57 1.96-.13 3.22-2.08 3.79l-5.1 1.47c-1.95.56-3.21-.14-3.77-2.1l-9.95-34.49q-.555-1.935.36-3.09c.62-.77 1.46-1.3 2.55-1.62l.63-.18c1-.29 1.95-.3 2.84-.04s1.87.76 2.94 1.49l22.55 14.92-5.6-19.4c-.57-1.96.13-3.22 2.09-3.79l5.13-1.48ZM869.38 74.21c-2.01.27-3.15-.61-3.42-2.63l-4.79-35.9c-.27-2.02.6-3.17 2.61-3.44l5.26-.7c2.01-.27 3.15.61 3.42 2.63l4.79 35.9c.27 2.02-.6 3.17-2.61 3.44ZM939.45 69.54c.14 1-.04 1.74-.55 2.2s-1.27.68-2.27.65l-4.69-.14q-1.5-.045-2.16-.78c-.44-.49-.71-1.24-.81-2.24l-1.66-18.62L919 69.2c-.93 1.97-2.35 2.93-4.26 2.87l-.65-.02q-2.865-.09-4.08-3.12l-7.19-19.12-2.77 18.56c-.12 1-.41 1.73-.88 2.19-.47.47-1.21.68-2.2.65l-5.47-.16c-2.13-.06-3.03-1.07-2.71-3.01l6.89-36.62c.32-1.95 1.5-2.89 3.54-2.83l.65.02c1 .03 1.78.3 2.35.82s1.06 1.26 1.47 2.23l11.15 25.95 12.03-25.25c.46-.94 1-1.65 1.63-2.13.62-.48 1.41-.71 2.37-.68l.72.02c1.95.06 3.07 1.07 3.36 3.04l4.5 36.96ZM991.38 81.83c.22 1.09.04 1.83-.53 2.22s-1.34.47-2.31.22l-6.76-1.71c-.97-.25-1.57-.66-1.8-1.26s-.41-1.42-.55-2.49l-.56-4.18-16.17-4.09-2.54 3.39c-.62.87-1.17 1.52-1.63 1.94-.47.42-1.18.51-2.15.26L950 74.52q-1.455-.375-1.92-1.29c-.31-.62-.12-1.35.59-2.2l25.93-31.35c1.4-1.66 3.01-2.26 4.82-1.8l.7.18c1.77.45 2.87 1.73 3.32 3.86l7.92 39.9Zm-13.52-15.38-1.8-13.89-8.44 11.31 10.23 2.59ZM1002.44 90.06c-1.85-.83-2.36-2.17-1.53-4.04l14.8-33.06c.83-1.86 2.18-2.38 4.03-1.55l4.85 2.17c1.85.83 2.36 2.18 1.53 4.04l-12.24 27.35 12.73 5.69c1.86.83 2.38 2.18 1.54 4.05l-1.3 2.91c-.83 1.86-2.18 2.38-4.05 1.54l-20.35-9.11ZM1081.46 110.53c.57.91 1.05 1.9 1.46 2.95.4 1.06.64 2.17.7 3.32.06 1.16-.07 2.33-.39 3.53q-.48 1.8-1.8 3.57c-1.09 1.47-2.36 2.56-3.82 3.29s-3.05 1.1-4.77 1.12-3.5-.31-5.34-1.01c-1.84-.69-3.7-1.74-5.58-3.14l-13.43-9.99c-1.64-1.22-1.85-2.64-.63-4.28l21.62-29.06c1.22-1.64 2.64-1.85 4.28-.63l12.39 9.21c1.74 1.3 3.16 2.67 4.24 4.13 1.08 1.45 1.83 2.94 2.24 4.46s.48 3.04.2 4.53-.92 2.93-1.93 4.29c-1.17 1.57-2.57 2.65-4.2 3.25-1.64.6-3.37.75-5.22.46Zm-16.11 5.88c1.54 1.15 3 1.69 4.38 1.63s2.52-.7 3.43-1.92c.88-1.18 1.16-2.45.83-3.8q-.495-2.025-2.64-3.63l-5.36-3.99-5.88 7.8 5.25 3.91Zm10.25-24.53-5.38 7.12 4.21 3.13c1.26.94 2.49 1.37 3.7 1.29 1.2-.08 2.22-.67 3.05-1.79.83-1.11 1.11-2.27.86-3.46-.26-1.19-1.02-2.26-2.28-3.2ZM1084.35 143.11c-1.4-1.47-1.35-2.91.13-4.32l26.28-24.93c1.48-1.4 2.92-1.37 4.32.1l17.45 18.4c1.4 1.48 1.37 2.92-.11 4.33l-2.32 2.2c-1.48 1.4-2.92 1.37-4.33-.11l-11.7-12.34-5.39 5.11 8.52 8.98c1.4 1.48 1.37 2.92-.11 4.33l-1.94 1.84c-1.48 1.4-2.92 1.37-4.33-.11l-8.52-8.98-5.43 5.16 11.83 12.48c1.4 1.48 1.37 2.92-.11 4.33l-2.32 2.2c-1.48 1.4-2.92 1.37-4.33-.11l-17.59-18.54ZM1113 175.32c-1.1-1.7-.79-3.11.92-4.22l30.43-19.65c1.71-1.11 3.12-.81 4.22.89l2.88 4.46c1.1 1.71.79 3.11-.92 4.22l-11.33 7.32 8.77 13.57 11.33-7.32c1.71-1.11 3.11-.82 4.2.86l2.93 4.54c1.08 1.68.77 3.07-.95 4.18l-30.42 19.65c-1.72 1.11-3.12.82-4.2-.86l-2.93-4.54c-1.08-1.68-.77-3.07.94-4.18l11.27-7.28-8.77-13.57-11.27 7.28c-1.71 1.11-3.12.81-4.22-.9l-2.88-4.46ZM1156.28 254.6c-.76.81-1.46 1.1-2.11.86s-1.16-.82-1.52-1.75l-2.53-6.5c-.36-.93-.37-1.66-.02-2.2s.92-1.16 1.71-1.89l3.08-2.87-6.05-15.54-4.23-.1c-1.07 0-1.91-.07-2.53-.2-.61-.14-1.1-.67-1.46-1.6l-2.39-6.13c-.36-.93-.38-1.7-.06-2.32.32-.61 1.03-.88 2.14-.79l40.57 2.95c2.17.18 3.59 1.14 4.27 2.88l.26.67c.66 1.7.25 3.35-1.22 4.95l-27.91 29.59Zm4.69-19.93 10.28-9.52-14.1-.32 3.83 9.84ZM1203.15 288.34c.2.98.11 1.82-.26 2.51s-1.11.91-2.23.64l-39.32-9.97c-1.12-.31-1.98-.7-2.56-1.18-.59-.48-.97-1.19-1.16-2.13l-.14-.7c-.2-.98-.12-1.8.24-2.47s1-1.34 1.93-2.01l32.48-24.35c.93-.67 1.7-.76 2.31-.26q.915.75 1.2 2.22l1.1 5.49c.39 1.96-.33 3.54-2.17 4.75l-20.78 13.71 24.53 5.08c2.18.5 3.46 1.68 3.83 3.55l1.02 5.11ZM1162.3 311.5c-.11-2.03.86-3.1 2.89-3.21l36.17-1.95c2.04-.11 3.11.85 3.22 2.88l.28 5.3c.11 2.03-.86 3.1-2.89 3.21l-36.17 1.95c-2.04.11-3.11-.85-3.22-2.87l-.28-5.3ZM1160.78 353.76c.33-3.29 1.18-6.3 2.57-9.04q2.085-4.11 5.31-6.93c3.225-2.82 4.63-3.28 7.42-4.2 2.8-.92 5.75-1.23 8.86-.92s5.95 1.19 8.51 2.65 4.71 3.32 6.45 5.59 3.02 4.88 3.83 7.85c.82 2.96 1.06 6.08.74 9.37-.33 3.33-1.19 6.36-2.58 9.11-1.39 2.74-3.15 5.05-5.3 6.93s-4.63 3.28-7.42 4.2c-2.8.92-5.75 1.23-8.86.92s-5.94-1.19-8.48-2.64a21.7 21.7 0 0 1-6.45-5.59c-1.76-2.27-3.05-4.89-3.87-7.85s-1.06-6.11-.73-9.43Zm10.24 1.02c-.16 1.64-.04 3.2.38 4.69s1.1 2.8 2.03 3.97c.93 1.16 2.08 2.12 3.44 2.87s2.89 1.2 4.58 1.37 3.27.02 4.76-.44 2.8-1.17 3.94-2.13 2.07-2.12 2.77-3.49 1.14-2.88 1.3-4.52q.24-2.4-.39-4.62c-.42-1.48-1.1-2.81-2.03-3.97-.93-1.17-2.08-2.12-3.44-2.87s-2.89-1.2-4.58-1.37c-1.68-.17-3.27-.02-4.76.44s-2.8 1.17-3.94 2.13-2.07 2.12-2.77 3.49c-.71 1.37-1.14 2.85-1.3 4.45Z" class="cls-5"/><path d="M1149.63 407.08c.92-2.85 2.22-5.31 3.89-7.37s3.61-3.66 5.83-4.79 4.65-1.78 7.31-1.95 5.43.21 8.32 1.15l18.97 6.13q2.91.945 1.98 3.84l-1.63 5.05c-.62 1.93-1.91 2.58-3.85 1.95l-19.59-6.33c-2.64-.86-5.03-.79-7.15.2s-3.59 2.72-4.39 5.21-.64 4.75.51 6.8c1.14 2.04 3.04 3.49 5.68 4.35l19.59 6.33c1.94.63 2.6 1.91 1.97 3.86l-1.61 4.96c-.61 1.9-1.89 2.54-3.84 1.91l-18.97-6.13c-2.89-.94-5.37-2.24-7.43-3.91s-3.66-3.61-4.79-5.83c-1.13-2.21-1.78-4.63-1.94-7.23q-.24-3.915 1.14-8.19ZM1124.34 470.28c-1.15 0-1.84-.31-2.07-.97-.23-.65-.11-1.42.38-2.29l3.24-5.82c.49-.88 1.05-1.38 1.7-1.52s1.55-.21 2.7-.22l14.15.03 2.16-3.88-10.76-5.99c-1.78-1-2.18-2.38-1.19-4.15l2.59-4.64c.99-1.77 2.37-2.16 4.16-1.17l31.64 17.63c1.78.99 2.18 2.38 1.18 4.16l-7.67 13.77c-2.66 4.78-5.76 7.82-9.29 9.11s-7.17.89-10.93-1.2c-2.51-1.4-4.24-3.22-5.2-5.47s-1.27-4.7-.94-7.35l-15.86-.04Zm28.98-10.93-3.51 6.29c-.72 1.3-.96 2.6-.72 3.91s1.05 2.34 2.41 3.1q2.1 1.17 4.02.48t3-2.64l3.5-6.29-8.71-4.85Z" class="cls-5"/><path d="M4315.98 1997.88H264.66V-471.6h4051.32ZM268 1994.55h4044.64V-468.26H268Z" class="cls-3" style="clip-path:url(#clippath-1)"/></svg>