<svg id="Layer_1" xmlns="http://www.w3.org/2000/svg" viewBox="0 0 948.41 1051.7"><defs><style>.cls-1{fill:#ecae7d}.cls-2{fill:#e9311a}.cls-3{fill:#fbf0e5}</style></defs><path class="cls-3" d="M893.51 445.06c0 227.06-156.74 86.82-398.49 86.82S18.04 672.11 18.04 445.06 214.02 33.93 455.77 33.93 893.51 218 893.51 445.05ZM72 687.38c0-123.28 137.41-47.14 349.36-47.14s418.17-76.14 418.17 47.14-194.41 76.42-406.36 76.42-361.18 46.87-361.18-76.42Z"/><path class="cls-1" d="M251.66 678.96c-1.81 16.72-8.99 32.25-20.82 44.64-14.65 15.34-34.4 23.79-55.61 23.79-3.23 0-5.84 2.62-5.84 5.84s2.62 5.84 5.84 5.84c24.43 0 47.18-9.73 64.06-27.4 10.44-10.93 17.73-24 21.51-38.16l-9.15-14.55ZM729.57 568.1c-19.03-88.14-50.06-123.64-72.74-137.9-12.13-7.63-27.71-8.98-41.69-3.63-7.95 3.04-17.03 8.24-26.64 13.75-22.49 12.89-50.48 28.94-84.93 29.84-3.24.07-5.91-2.46-5.99-5.69a5.836 5.836 0 0 1 5.69-5.99c31.5-.83 56.96-15.42 79.42-28.3 10.01-5.74 19.47-11.16 28.27-14.53 17.39-6.66 36.87-4.91 52.09 4.65 24.58 15.46 58.06 53.21 77.95 145.33"/><path class="cls-2" d="M730.95 180.34c-1.39 0-2.79-.49-3.9-1.5a390.74 390.74 0 0 0-4.31-3.81c-2.43-2.12-2.69-5.81-.57-8.24 2.12-2.43 5.81-2.69 8.24-.57 1.49 1.3 2.97 2.61 4.44 3.93 2.4 2.16 2.6 5.85.44 8.25a5.808 5.808 0 0 1-4.35 1.94Zm-31.78-25.73c-1.19 0-2.4-.36-3.43-1.12-1.55-1.13-3.11-2.25-4.68-3.36a5.837 5.837 0 0 1-1.4-8.14c1.86-2.63 5.51-3.27 8.14-1.4 1.61 1.14 3.22 2.29 4.82 3.45a5.839 5.839 0 0 1 1.29 8.16 5.824 5.824 0 0 1-4.73 2.4Zm-34.24-22.35c-1 0-2.01-.26-2.94-.8-1.66-.97-3.33-1.92-5-2.86a5.84 5.84 0 0 1-2.22-7.96 5.837 5.837 0 0 1 7.96-2.22c1.72.97 3.44 1.95 5.15 2.95 2.79 1.62 3.73 5.2 2.11 7.99a5.833 5.833 0 0 1-5.05 2.9Zm-36.34-18.74c-.8 0-1.62-.17-2.4-.52-1.75-.79-3.51-1.57-5.27-2.34a5.852 5.852 0 0 1-3.03-7.69 5.852 5.852 0 0 1 7.69-3.03c1.81.79 3.62 1.59 5.42 2.4a5.843 5.843 0 0 1-2.41 11.17Zm-38.07-14.91c-.61 0-1.24-.1-1.85-.3-1.82-.61-3.65-1.2-5.48-1.78a5.839 5.839 0 0 1-3.8-7.34 5.839 5.839 0 0 1 7.34-3.8c1.89.6 3.77 1.21 5.65 1.84a5.841 5.841 0 0 1-1.85 11.38ZM551.11 87.7c-.42 0-.84-.04-1.27-.14-1.88-.42-3.76-.82-5.64-1.21a5.84 5.84 0 0 1-4.54-6.9c.65-3.16 3.73-5.21 6.9-4.54 1.94.4 3.88.82 5.81 1.24 3.15.7 5.14 3.82 4.44 6.97a5.837 5.837 0 0 1-5.7 4.58Zm-40.34-6.8c-.23 0-.45-.01-.68-.04-1.91-.22-3.82-.43-5.74-.63-3.21-.33-5.55-3.19-5.22-6.4a5.845 5.845 0 0 1 6.4-5.22c1.97.2 3.95.42 5.91.64a5.84 5.84 0 0 1 5.13 6.48 5.845 5.845 0 0 1-5.8 5.17Zm-40.84-2.66h-.08c-1.92-.03-3.84-.04-5.76-.04-3.23 0-5.84-2.62-5.84-5.84s2.62-5.84 5.84-5.84c1.98 0 3.95.01 5.93.04 3.23.05 5.81 2.7 5.76 5.93a5.843 5.843 0 0 1-5.84 5.76ZM84.47 603.12c-2.45 0-4.74-1.56-5.55-4.01-.62-1.88-1.22-3.76-1.82-5.64-.96-3.08.75-6.36 3.83-7.32s6.36.75 7.32 3.83c.58 1.83 1.16 3.66 1.76 5.48a5.842 5.842 0 0 1-3.72 7.38c-.61.2-1.23.3-1.83.3Zm-10.79-39.43c-2.68 0-5.1-1.86-5.7-4.59-.42-1.93-.83-3.86-1.23-5.8-.64-3.16 1.4-6.25 4.56-6.89a5.84 5.84 0 0 1 6.89 4.56c.38 1.88.78 3.76 1.19 5.63.69 3.15-1.3 6.27-4.46 6.96-.42.09-.84.14-1.26.14ZM67 523.36c-2.93 0-5.46-2.2-5.8-5.19-.22-1.96-.43-3.92-.62-5.89-.32-3.21 2.03-6.07 5.24-6.39a5.852 5.852 0 0 1 6.39 5.24c.19 1.91.39 3.82.61 5.73.36 3.21-1.94 6.1-5.15 6.46-.22.03-.45.04-.66.04Zm-2.53-40.8c-3.2 0-5.8-2.57-5.84-5.78-.02-1.59-.03-3.19-.03-4.79v-1.14a5.843 5.843 0 0 1 5.84-5.82h.02c3.23.01 5.83 2.64 5.82 5.87v1.1c0 1.56 0 3.11.03 4.66.04 3.23-2.55 5.87-5.78 5.91h-.07Zm1.59-40.85c-.18 0-.35 0-.53-.02-3.21-.29-5.59-3.13-5.3-6.34.18-1.97.37-3.94.57-5.9.33-3.21 3.23-5.55 6.42-5.2 3.21.33 5.54 3.21 5.2 6.42-.2 1.9-.38 3.82-.56 5.73a5.836 5.836 0 0 1-5.81 5.32Zm5.73-40.5c-.37 0-.74-.03-1.12-.11a5.838 5.838 0 0 1-4.62-6.85c.38-1.95.77-3.89 1.18-5.82a5.844 5.844 0 0 1 6.92-4.52c3.16.66 5.18 3.76 4.52 6.92-.39 1.88-.78 3.77-1.14 5.66a5.846 5.846 0 0 1-5.73 4.73Zm9.85-39.71a5.839 5.839 0 0 1-5.59-7.54c.58-1.9 1.17-3.78 1.77-5.67.98-3.08 4.27-4.77 7.35-3.79 3.07.98 4.77 4.27 3.79 7.35-.59 1.83-1.16 3.67-1.72 5.51a5.843 5.843 0 0 1-5.59 4.14Zm13.89-38.47a5.844 5.844 0 0 1-5.38-8.11c.77-1.83 1.55-3.64 2.34-5.46 1.29-2.95 4.74-4.3 7.7-3.01 2.95 1.29 4.3 4.74 3.01 7.7-.77 1.76-1.53 3.52-2.28 5.3a5.856 5.856 0 0 1-5.39 3.58Zm17.77-36.83c-.95 0-1.91-.23-2.8-.72a5.842 5.842 0 0 1-2.32-7.93c.95-1.74 1.91-3.46 2.89-5.18a5.837 5.837 0 0 1 7.96-2.2 5.837 5.837 0 0 1 2.2 7.96c-.95 1.67-1.88 3.35-2.81 5.04a5.836 5.836 0 0 1-5.13 3.04Zm21.45-34.82a5.846 5.846 0 0 1-4.81-9.16c1.12-1.63 2.26-3.25 3.4-4.86a5.835 5.835 0 0 1 8.15-1.37 5.835 5.835 0 0 1 1.37 8.15c-1.11 1.56-2.21 3.14-3.3 4.72a5.823 5.823 0 0 1-4.82 2.53Zm24.88-32.45c-1.34 0-2.69-.46-3.79-1.39-2.46-2.09-2.75-5.78-.66-8.24 1.28-1.5 2.57-3 3.88-4.49a5.843 5.843 0 0 1 8.25-.54 5.843 5.843 0 0 1 .54 8.25c-1.27 1.44-2.52 2.9-3.77 4.36a5.824 5.824 0 0 1-4.45 2.05Zm28.05-29.74c-1.54 0-3.07-.6-4.22-1.8a5.844 5.844 0 0 1 .18-8.26c1.43-1.37 2.86-2.72 4.31-4.07a5.837 5.837 0 0 1 8.26.3 5.837 5.837 0 0 1-.3 8.26c-1.41 1.31-2.8 2.63-4.19 3.95a5.84 5.84 0 0 1-4.04 1.62ZM328.72 783.32c-.69 0-1.39-.12-2.07-.38-3.02-1.14-4.53-4.52-3.39-7.53.53-1.39 51.82-140.74-26.11-278.11-80.33-141.62-50.04-372.65-48.71-382.42.43-3.2 3.39-5.42 6.58-5a5.84 5.84 0 0 1 5 6.58c-.08.59-8 59.88-6.05 135.56 1.79 69.52 12.5 167.51 53.35 239.52 80.71 142.28 27.41 286.58 26.86 288.02a5.857 5.857 0 0 1-5.46 3.77ZM764.03 783.32a5.84 5.84 0 0 1-4.97-8.91c.17-.3 21.52-40.4-23.04-187.25-26.19-86.29-60.02-119.13-83.8-131.48-12.71-6.61-28.36-6.68-41.85-.2-7.68 3.68-16.3 9.61-25.42 15.89-21.36 14.69-47.94 32.98-82.2 36.7a5.838 5.838 0 0 1-6.44-5.18 5.842 5.842 0 0 1 5.18-6.44c31.33-3.4 55.51-20.04 76.84-34.71 9.51-6.54 18.49-12.72 26.99-16.8 16.79-8.06 36.34-7.92 52.29.37 25.77 13.39 62.23 48.28 89.59 138.45 19.44 64.07 29.16 116.27 28.89 155.17-.21 29.65-6.38 40.48-7.09 41.62a5.831 5.831 0 0 1-4.98 2.77Z"/><path class="cls-2" d="M354.94 784.05c-2.93 0-5.45-2.2-5.8-5.17l-2.44-21.13c-1.55-13.45-1.05-27.1 1.5-40.57 3.46-18.32 7.87-37.52 12.14-56.08 12.53-54.49 25.47-110.83 11.95-138.52-1.38-2.84-4.14-5.08-7.56-6.15-16.11-5.06-55.6-23.28-74.19-83.13-9.45-30.42-9.37-63.17.24-94.72l.12-.41c3.42-11.23 12.3-19.27 23.76-21.5 11.59-2.26 23.47 2.13 30.98 11.43 19.04 23.58 47.98 34.34 86.02 31.95 8.35-.52 23.89-1.49 35.3 12.57 28.56 35.22 15.13 150.88-41.06 353.58-3.9 14.07-5.39 28.53-4.43 42.97l.58 8.65c.21 3.22-2.22 6-5.44 6.22-3.22.21-6-2.22-6.22-5.44l-.58-8.65c-1.05-15.76.57-31.53 4.82-46.87 37.36-134.77 75.19-303.7 43.24-343.09-7.03-8.67-16.06-8.86-25.49-8.27-42.05 2.61-74.29-9.58-95.85-36.28-4.86-6.02-12.21-8.76-19.66-7.3-7.14 1.39-12.68 6.41-14.81 13.43l-.12.41c-8.92 29.3-9.01 59.67-.26 87.85 16.95 54.57 52.18 70.94 66.53 75.44 6.46 2.03 11.77 6.47 14.56 12.17 15.34 31.41 2.51 87.2-11.06 146.27-4.24 18.45-8.63 37.54-12.05 55.64-2.33 12.31-2.79 24.78-1.37 37.06l2.44 21.13c.37 3.21-1.93 6.1-5.14 6.47-.23.03-.45.04-.68.04ZM789.68 782.41c-2.75 0-5.21-1.96-5.74-4.76-.14-.77-14.47-77.87-14.86-159.33-.08-17.99.66-36.24 1.38-53.88 2.07-50.51 4.02-98.22-14.82-121.23-2.04-2.5-1.68-6.18.82-8.22 2.5-2.04 6.18-1.68 8.22.82 21.66 26.45 19.61 76.32 17.45 129.11-.72 17.51-1.46 35.62-1.37 53.35.38 80.36 14.51 156.46 14.66 157.22a5.835 5.835 0 0 1-5.75 6.92ZM662.28 783.32c-1.32 0-2.65-.45-3.75-1.36-2.47-2.07-2.8-5.76-.73-8.23 2.45-2.95 59.26-73.23-16.27-151.09-81.67-84.2-62.8-157.03-61.95-160.09a5.848 5.848 0 0 1 7.19-4.08 5.84 5.84 0 0 1 4.08 7.17c-.23.86-17.56 69.86 59.07 148.86 82.99 85.56 17.51 165.93 16.84 166.73a5.83 5.83 0 0 1-4.48 2.09Z"/><path class="cls-2" d="M687.24 783.32c-.86 0-1.73-.19-2.56-.59a5.834 5.834 0 0 1-2.69-7.81c.05-.1 5.62-11.97 7.71-35.02 1.94-21.34 1.2-56.89-13.3-105.05-29.36-97.53 10.04-152.51 11.73-154.8 1.91-2.6 5.57-3.15 8.17-1.23a5.841 5.841 0 0 1 1.24 8.16c-.09.13-9.53 13.25-15.44 37.48-5.46 22.38-8.94 59.12 5.49 107.02 29.18 96.92 5.91 146.5 4.9 148.56a5.83 5.83 0 0 1-5.26 3.28ZM388.44 783.32c-.82 0-1.65-.17-2.45-.54a5.841 5.841 0 0 1-2.86-7.75c44.24-95.83 38.64-179.04 26.15-231.97-13.56-57.5-37.96-92.78-38.2-93.13a5.849 5.849 0 0 1 1.43-8.14 5.844 5.844 0 0 1 8.13 1.42c1.04 1.49 25.75 37.11 39.88 96.63 13.02 54.83 18.95 141-26.79 240.08a5.838 5.838 0 0 1-5.31 3.39ZM400.11 217.55c-18.65 0-38.19-4.47-50.84-15.12-2.56-2.16-9.41.4-16.04 2.87-13.77 5.13-34.58 12.89-50.58-9.6a5.846 5.846 0 0 1 1.38-8.15 5.846 5.846 0 0 1 8.15 1.38c10.07 14.16 20.68 11.5 36.97 5.43 9.76-3.64 19.86-7.41 27.64-.86 15.8 13.3 47.16 15.11 68.35 9.17 11.67-3.27 17-7.9 18.09-11.15 5.64-16.75 7.66-27.48 7.66-31.93 0-5.65-16.19-9.31-30.48-12.54-8.01-1.81-16.29-3.68-24.37-6.24-19.62-6.21-20.99-26.32-21.51-33.9v-.06c-1.31-2.04-8.85-7.23-24.5-13.26-17.33-6.68-26.77-8.81-33.66-10.37-2.52-.57-4.7-1.06-6.79-1.67-3.1-.9-4.87-4.15-3.97-7.25.91-3.1 4.14-4.88 7.25-3.97 1.75.51 3.76.97 6.09 1.49 6.83 1.55 17.15 3.88 35.28 10.87 31.16 12.01 31.71 19.94 31.92 22.93l.03.5c.7 10.25 2.8 20.2 13.37 23.55 7.61 2.41 15.65 4.23 23.42 5.98 21.25 4.81 39.61 8.95 39.59 23.95 0 7.07-3.02 20.07-8.28 35.66-2.73 8.1-11.97 14.73-26.02 18.67-8.33 2.33-18.13 3.63-28.19 3.63Zm-25.47-110.52Z"/><path class="cls-2" d="M279.3 223.82c-1.36 0-3.16-.45-4.82-2.3-8.01-8.93-44.47-87.37-16.05-148.96 1.67-5.44 16.93-51.5 56.3-52.53 11.44-.29 21.1 1.76 28.7 6.11 8.01 4.59 11.81 13.37 9.67 22.38-2.13 8.95-9.42 15.04-18.57 15.52l-.91.04c-8.98.42-18-2.95-24.72-9.2l-5.42-5.03a5.846 5.846 0 0 1-.3-8.26c2.2-2.36 5.89-2.5 8.26-.3l5.42 5.03c4.45 4.13 10.37 6.36 16.26 6.09l.82-.04c4.66-.25 7.09-3.55 7.8-6.56.73-3.06.03-7.17-4.1-9.53-5.72-3.28-13.32-4.82-22.59-4.57-32.38.84-45.39 44.12-45.51 44.55l-.31.84c-26.77 57.38 8.26 128.57 13.69 136.23.89.68 1.59 1.62 1.98 2.76a5.833 5.833 0 0 1-5.58 7.72ZM449.93 179.39h-.36c-14.12-.85-23.05-5.09-26.56-12.59-4.76-10.16 2.85-20.98 3.73-22.17 1.91-2.6 5.57-3.15 8.17-1.24a5.84 5.84 0 0 1 1.25 8.15c-1.17 1.62-4.14 6.99-2.56 10.33 1.51 3.17 7.58 5.31 16.68 5.86 3.22.19 5.67 2.96 5.48 6.19a5.845 5.845 0 0 1-5.83 5.49Z"/><path class="cls-2" d="M315.99 96.39a5.84 5.84 0 0 1-4.98-2.78c-13.45-21.83-4-38.3 2.87-43.96a5.83 5.83 0 0 1 8.22.8 5.845 5.845 0 0 1-.75 8.19c-1.25 1.08-11.52 10.8-.4 28.85 1.69 2.75.84 6.35-1.91 8.04-.96.59-2.01.87-3.06.87ZM409.41 95.96c-1.43 0-2.88-.15-4.36-.45l-.7-.14c-7.99-1.7-15.1-6.67-19.51-13.63l-3.45-5.44a5.832 5.832 0 0 1 1.81-8.06c2.72-1.73 6.33-.92 8.06 1.81l3.45 5.44c2.73 4.32 7.14 7.4 12.08 8.45l.59.12c5.1 1.04 8.22-1.9 9.45-4.99 1.24-3.11.98-7.43-3.46-10.21-3.69-2.31-8.3-4.12-13.7-5.4-27.32-6.44-48.3 22.93-48.51 23.23a5.847 5.847 0 0 1-8.14 1.43 5.849 5.849 0 0 1-1.43-8.14c1.04-1.48 25.8-36.15 60.77-27.9 6.65 1.57 12.44 3.88 17.21 6.86 9.88 6.17 11.2 16.73 8.12 24.45-3.13 7.86-10.18 12.56-18.28 12.56Z"/><path class="cls-2" d="M380.39 112.84c-2.84 0-5.33-2.07-5.77-4.96-1.56-10.27-.12-18.35 4.3-24.02 4.79-6.15 11.22-6.94 11.94-7.01 3.2-.3 6.07 2.05 6.38 5.26.3 3.17-1.98 5.99-5.13 6.36-.96.15-8.33 1.87-5.93 17.65.49 3.19-1.71 6.17-4.9 6.66-.3.05-.59.07-.89.07ZM354.43 135.14a5.84 5.84 0 0 1-5.84-5.84c0-1.96-.38-4.63-2.2-6.29-1.31-1.2-3.25-1.75-5.46-1.55-5.8.61-6.64 5.57-6.76 7.08-.27 3.19-3.03 5.64-6.24 5.38-3.19-.23-5.61-2.94-5.42-6.14.33-5.61 4.3-16.57 16.94-17.91l.41-.04c5.52-.5 10.63 1.11 14.41 4.55 2.74 2.5 6.01 7.12 6.01 14.92a5.84 5.84 0 0 1-5.84 5.84ZM736.55 380.7c-1.94 0-3.85-.97-4.95-2.74-18.75-29.88-32.95-39.41-50.98-49.62-22.72-12.87-47.94-18.54-74.95-16.81-98.68 6.26-172.89-10.41-220.6-49.59-36.28-29.8-42.62-61.55-42.88-62.88a5.835 5.835 0 0 1 4.66-6.82c3.17-.6 6.23 1.49 6.82 4.66.05.27 6.11 29.52 39.57 56.64 31.22 25.3 93.3 53.89 211.68 46.34 29.31-1.86 56.72 4.3 81.45 18.31 18.9 10.71 34.95 21.45 55.11 53.58 1.72 2.73.89 6.34-1.84 8.05-.96.61-2.04.9-3.1.9Z"/><path class="cls-2" d="M810.13 421.51c-31.76 0-61.61-16.46-78.54-43.55a5.838 5.838 0 0 1 1.86-8.05 5.838 5.838 0 0 1 8.05 1.86c15.34 24.54 42.82 39.09 71.71 38 44.54-1.71 79.39-39.34 77.69-83.88-1.71-44.54-39.38-79.44-83.88-77.69-25.7.99-48.83 13.71-63.47 34.9-1.83 2.66-5.48 3.32-8.13 1.49-2.66-1.83-3.32-5.47-1.49-8.13 16.75-24.25 43.22-38.81 72.64-39.94 51.01-2 94.05 37.93 96.01 88.92 1.96 50.98-37.93 94.05-88.91 96.01-1.18.04-2.35.07-3.52.07Z"/><path class="cls-2" d="M896.72 331.5a5.84 5.84 0 0 1-5.83-5.62c-1.05-27.3-12.66-52.55-32.7-71.11-20.04-18.56-46.1-28.19-73.41-27.16-17.91.69-35.34 6.06-50.42 15.53-2.73 1.72-6.34.89-8.06-1.84-1.72-2.73-.89-6.34 1.84-8.06 16.81-10.56 36.24-16.55 56.19-17.32 30.43-1.17 59.46 9.58 81.8 30.26 22.33 20.68 35.27 48.82 36.44 79.24.12 3.22-2.39 5.94-5.61 6.06h-.23ZM175.24 783.32c-22.94 0-40.94-11.43-49.39-31.36-9.73-22.94-4.19-51.71 13.47-69.97 9.18-9.49 19.78-17.22 32.06-26.17 2.54-1.85 5.15-3.75 7.83-5.73 46.73-34.5 45.83-63.09 42.97-74.34-18.54 6.36-38.5-8.98-44.69-14.32a8.352 8.352 0 0 1-2.89-5.8c-.14-2.25.62-4.43 2.13-6.11 2.68-2.98 8.97-10.96 9.38-20.71.54-12.94 9.25-21 14.85-24.88-.87-6.39.5-14.13 1.02-16.64l1.13-5.6 5.74.95c34.84 6.37 61.98 23.98 78.49 50.93 21.13 34.48 24.49 83.55 9.23 134.63-23.02 77.02-23.63 109.01-23.63 109.32-.03 3.22-2.66 5.77-5.9 5.78a5.845 5.845 0 0 1-5.79-5.88c0-1.33.5-33.55 24.12-112.58 14.31-47.9 11.4-93.53-7.99-125.18-14.02-22.88-35.79-37.77-64.79-44.35-.32 3.31-.32 6.55.22 8.35 1.02 3.35-.41 6.95-3.48 8.76-3.34 1.97-11.16 7.55-11.54 16.86-.46 11.01-5.83 19.93-10.13 25.38 7.27 5.71 22.88 15.81 34.5 8.15l5.18-3.42 3.1 5.38c1.02 1.78 24.24 44.09-44.31 94.7-2.7 1.99-5.33 3.91-7.89 5.77-11.84 8.63-22.07 16.08-30.54 24.85-14.49 14.99-19.06 38.55-11.11 57.29 3.84 9.05 13.96 24.23 38.63 24.23 3.23 0 5.84 2.62 5.84 5.84s-2.62 5.84-5.84 5.84Z"/><path class="cls-2" d="M225.38 534.7c-3.86 3.77-4.34-3.44-9.73-3.5-5.4-.06-6.03 7.14-9.81 3.28-4.44-4.54 4.51-12.18 9.9-12.12 5.4.06 14.42 7.65 9.64 12.33ZM289.4 783.32c-2.05 0-4.04-1.08-5.11-3-10.7-19.2-1.75-99.95-.7-109.1a5.817 5.817 0 0 1 6.47-5.13 5.85 5.85 0 0 1 5.14 6.47c-3.82 33.1-7.38 90.08-.7 102.07a5.844 5.844 0 0 1-5.1 8.69ZM175.24 783.32c-3.23 0-5.84-2.62-5.84-5.84s2.62-5.84 5.84-5.84c21.21 0 40.96-8.45 55.61-23.79 14.64-15.33 22.17-35.48 21.19-56.73-1.8-39.22-33.94-71.36-73.16-73.16-36.1-1.67-68.95 22.46-78.04 57.35-.81 3.12-4.01 4.99-7.13 4.18-3.12-.81-4.99-4.01-4.18-7.13 10.48-40.2 48.3-67.99 89.89-66.08 45.19 2.08 82.22 39.11 84.3 84.3 1.13 24.47-7.55 47.68-24.41 65.34-16.88 17.67-39.63 27.4-64.06 27.4Z"/><path class="cls-2" d="M117.41 675.94c-.31 0-.62-.03-.93-.08a5.837 5.837 0 0 1-4.84-6.69c5.55-34.58 35.03-60.95 70.1-62.7 3.25-.21 5.97 2.32 6.13 5.54.16 3.22-2.32 5.97-5.54 6.13-29.59 1.48-54.46 23.72-59.14 52.88a5.845 5.845 0 0 1-5.76 4.92ZM96.59 885.02c2.21.87 4.37 1.97 6.49 3.32 2.11 1.35 3.99 3.01 5.62 4.97 1.63 1.97 2.95 4.23 3.97 6.77 1.01 2.55 1.51 5.46 1.51 8.72 0 4.04-.82 7.67-2.45 10.88-1.63 3.22-3.96 5.98-6.99 8.29s-6.63 4.06-10.81 5.26c-4.18 1.2-8.87 1.8-14.05 1.8H42.83c-4.52 0-6.77-2.25-6.77-6.77v-80.15c0-4.52 2.26-6.78 6.77-6.78H77c4.8 0 9.13.58 12.97 1.73s7.14 2.81 9.88 4.97 4.85 4.76 6.34 7.78c1.49 3.03 2.23 6.42 2.23 10.16 0 4.32-1.06 8.09-3.17 11.32s-5 5.79-8.65 7.71Zm-20.83 31.71c4.25 0 7.56-.96 9.92-2.88 2.37-1.92 3.55-4.56 3.55-7.93s-1.19-5.89-3.55-7.86c-2.37-1.97-5.53-2.96-9.49-2.96H61.41l-.15 21.62h14.49Zm-14.2-57.09-.15 19.75h11.6c3.48 0 6.24-.87 8.27-2.6 2.03-1.73 3.05-4.13 3.05-7.21s-1.02-5.5-3.05-7.28c-2.03-1.78-4.79-2.67-8.27-2.67H61.55ZM158.58 861.09c4.32 0 8.55.53 12.69 1.59 4.13 1.06 7.81 2.79 11.03 5.19 3.22 2.4 5.81 5.57 7.78 9.51 1.97 3.94 2.95 8.8 2.95 14.56v36.47c0 4.42-2.21 6.63-6.63 6.63h-5.91c-4.32 0-6.49-2.21-6.49-6.63v-.58c-3.08 2.79-6.56 5-10.45 6.63-3.89 1.63-8.1 2.45-12.62 2.45s-8.22-.56-11.68-1.66c-3.46-1.11-6.44-2.67-8.94-4.69-2.5-2.02-4.42-4.42-5.77-7.21-1.35-2.78-2.02-5.91-2.02-9.37 0-3.75.74-7.14 2.23-10.16 1.49-3.03 3.58-5.62 6.27-7.78 2.69-2.16 5.93-3.82 9.73-4.97 3.8-1.15 8.05-1.73 12.76-1.73 2.79 0 5.57.29 8.36.86 2.78.58 5.48 1.3 8.07 2.16v-2.59c0-3.36-1.13-6.01-3.39-7.93-2.26-1.92-5.5-2.88-9.73-2.88-3.56 0-6.7.43-9.44 1.3s-4.97 1.83-6.7 2.88c-1.64.86-3.17 1.15-4.61.86-1.44-.29-2.69-1.44-3.75-3.46l-1.59-3.32c-1.25-2.3-1.66-4.16-1.23-5.55s1.42-2.57 2.96-3.53c3.55-2.21 7.71-3.94 12.47-5.19 4.76-1.25 9.3-1.87 13.63-1.87Zm-1.3 60.4c3.94 0 7.14-.99 9.59-2.96s3.67-3.91 3.67-5.84v-5.91c-1.35-.67-3.19-1.37-5.55-2.09s-4.83-1.08-7.42-1.08c-3.56 0-6.39.84-8.5 2.52-2.12 1.68-3.17 3.87-3.17 6.56s1.03 4.83 3.1 6.42c2.06 1.59 4.83 2.38 8.29 2.38ZM260.06 862.68c1.25.48 2.3 1.11 3.17 1.87.86.77 1.01 2.21.43 4.32l-2.74 10.81c-.58 2.02-1.42 3.29-2.52 3.82-1.11.53-2.29.56-3.53.07-1.15-.38-2.38-.72-3.68-1.01-1.3-.29-2.57-.43-3.82-.43-4.32 0-7.59 1.27-9.8 3.82s-3.32 5.98-3.32 10.31v32.15c0 4.42-2.16 6.63-6.49 6.63h-11.97c-4.32 0-6.49-2.21-6.49-6.63v-59.54c0-4.42 2.16-6.63 6.49-6.63h7.64c4.33 0 6.49 2.21 6.49 6.63v3.46c2.5-3.55 5.4-6.32 8.72-8.29 3.32-1.97 6.99-2.95 11.03-2.95 3.75 0 7.21.53 10.38 1.59ZM344.68 928.41c1.63 2.02 1.97 3.63 1.01 4.83-.96 1.2-2.5 1.8-4.61 1.8h-15.71c-2.21 0-4.06-.58-5.55-1.73-1.49-1.15-2.91-2.74-4.25-4.76l-13.69-20.47-4.61 5.33v14.99c0 4.42-2.21 6.63-6.63 6.63h-11.68c-4.32 0-6.49-2.21-6.49-6.63v-87.36c0-2.11.55-3.65 1.66-4.61 1.1-.96 2.71-1.63 4.83-2.02l11.53-2.16c2.21-.48 3.89-.05 5.04 1.29 1.15 1.35 1.73 3.13 1.73 5.34v52.76l18.17-22.92c1.63-1.92 3.12-3.48 4.47-4.69 1.35-1.2 3.12-1.8 5.34-1.8h14.7c2.02 0 3.51.6 4.47 1.8.96 1.2.63 2.81-1.01 4.83l-22.63 26.81 23.93 32.72ZM569.27 885.02c2.21.87 4.37 1.97 6.49 3.32s3.99 3.01 5.62 4.97c1.63 1.97 2.96 4.23 3.97 6.77 1.01 2.55 1.51 5.46 1.51 8.72 0 4.04-.82 7.67-2.45 10.88-1.64 3.22-3.96 5.98-6.99 8.29-3.02 2.31-6.63 4.06-10.81 5.26-4.18 1.2-8.87 1.8-14.06 1.8H515.5c-4.52 0-6.78-2.25-6.78-6.77v-80.15c0-4.52 2.26-6.78 6.78-6.78h34.16c4.81 0 9.13.58 12.98 1.73 3.84 1.15 7.14 2.81 9.87 4.97s4.85 4.76 6.34 7.78c1.49 3.03 2.23 6.42 2.23 10.16 0 4.32-1.06 8.09-3.17 11.32s-5 5.79-8.65 7.71Zm-20.83 31.71c4.25 0 7.56-.96 9.93-2.88s3.55-4.56 3.55-7.93-1.18-5.89-3.55-7.86c-2.37-1.97-5.53-2.96-9.49-2.96H534.1l-.14 21.62h14.49Zm-14.2-57.09-.15 19.75h11.61c3.48 0 6.24-.87 8.27-2.6 2.03-1.73 3.05-4.13 3.05-7.21s-1.02-5.5-3.05-7.28c-2.03-1.78-4.78-2.67-8.27-2.67h-11.46ZM631.26 861.09c4.33 0 8.56.53 12.69 1.59 4.13 1.06 7.81 2.79 11.03 5.19 3.22 2.4 5.81 5.57 7.78 9.51 1.97 3.94 2.95 8.8 2.95 14.56v36.47c0 4.42-2.21 6.63-6.63 6.63h-5.91c-4.33 0-6.49-2.21-6.49-6.63v-.58c-3.08 2.79-6.56 5-10.45 6.63-3.89 1.63-8.09 2.45-12.61 2.45s-8.22-.56-11.68-1.66c-3.46-1.11-6.44-2.67-8.94-4.69-2.5-2.02-4.42-4.42-5.77-7.21-1.35-2.78-2.02-5.91-2.02-9.37 0-3.75.74-7.14 2.23-10.16 1.49-3.03 3.58-5.62 6.27-7.78 2.69-2.16 5.93-3.82 9.73-4.97 3.8-1.15 8.05-1.73 12.76-1.73 2.79 0 5.57.29 8.36.86s5.48 1.3 8.08 2.16v-2.59c0-3.36-1.13-6.01-3.39-7.93-2.26-1.92-5.5-2.88-9.73-2.88-3.56 0-6.7.43-9.44 1.3-2.74.87-4.98 1.83-6.7 2.88-1.64.86-3.17 1.15-4.61.86-1.44-.29-2.69-1.44-3.75-3.46l-1.59-3.32c-1.25-2.3-1.66-4.16-1.22-5.55.43-1.39 1.42-2.57 2.95-3.53 3.56-2.21 7.71-3.94 12.47-5.19 4.76-1.25 9.3-1.87 13.62-1.87Zm-1.3 60.4c3.94 0 7.14-.99 9.59-2.96s3.68-3.91 3.68-5.84v-5.91c-1.35-.67-3.2-1.37-5.55-2.09-2.36-.72-4.83-1.08-7.43-1.08-3.56 0-6.39.84-8.5 2.52-2.12 1.68-3.17 3.87-3.17 6.56s1.03 4.83 3.1 6.42 4.83 2.38 8.29 2.38ZM710.11 937.06c-3.17 0-6.27-.29-9.3-.87s-5.84-1.34-8.43-2.31c-2.6-.96-4.97-2.06-7.14-3.32-2.16-1.25-3.96-2.54-5.41-3.89-1.63-1.53-2.57-3.05-2.81-4.54s.5-3.19 2.23-5.12l3.46-4.18c1.63-2.02 3.24-2.9 4.83-2.67 1.59.24 3.19.89 4.83 1.95 2.5 1.83 5.26 3.34 8.29 4.54 3.02 1.2 6.22 1.8 9.59 1.8 4.52 0 6.77-1.44 6.77-4.32 0-1.73-.94-3.07-2.81-4.04-1.87-.96-3.96-1.82-6.27-2.59a230.7 230.7 0 0 1-9.66-3.17c-3.27-1.15-6.2-2.62-8.79-4.4-2.6-1.78-4.71-3.96-6.35-6.56s-2.45-5.81-2.45-9.66c0-7.01 2.67-12.56 8-16.65 5.34-4.09 12.52-6.13 21.55-6.13 2.6 0 5.19.22 7.78.65 2.6.43 5.07 1.01 7.42 1.73s4.52 1.56 6.49 2.52c1.97.96 3.58 1.97 4.83 3.03 1.63 1.44 2.55 2.88 2.74 4.33.19 1.44-.58 3.27-2.31 5.48l-3.03 3.75c-1.25 1.64-2.69 2.5-4.32 2.6-1.63.1-3.27-.38-4.9-1.44a27.983 27.983 0 0 0-6.56-3.46c-2.36-.86-4.97-1.29-7.86-1.29-2.02 0-3.58.36-4.68 1.08-1.11.72-1.66 1.66-1.66 2.81 0 1.82 1.49 3.22 4.47 4.18 2.98.96 6.73 2.26 11.25 3.89 2.98 1.15 5.72 2.43 8.22 3.82 2.5 1.4 4.66 2.98 6.49 4.76 1.82 1.78 3.26 3.85 4.33 6.2 1.06 2.36 1.59 5.12 1.59 8.29 0 3.65-.75 6.92-2.23 9.8-1.49 2.88-3.56 5.31-6.2 7.28-2.64 1.97-5.84 3.48-9.59 4.54s-7.88 1.59-12.39 1.59ZM766.04 851.14c-2.02 0-3.94-.38-5.76-1.15-1.83-.77-3.44-1.85-4.83-3.25-1.39-1.39-2.47-3-3.25-4.83-.77-1.82-1.15-3.75-1.15-5.77s.38-4.08 1.15-5.91c.77-1.82 1.85-3.41 3.25-4.76 1.39-1.35 3-2.4 4.83-3.17 1.82-.77 3.75-1.15 5.76-1.15s4.09.38 5.91 1.15c1.82.77 3.41 1.83 4.76 3.17 1.35 1.35 2.4 2.93 3.17 4.76.77 1.83 1.15 3.8 1.15 5.91s-.38 3.94-1.15 5.77c-.77 1.83-1.82 3.44-3.17 4.83a14.443 14.443 0 0 1-4.76 3.25c-1.83.77-3.8 1.15-5.91 1.15Zm-5.87 83.9c-4.45 0-6.67-2.21-6.67-6.63v-59.54c0-4.42 2.22-6.63 6.67-6.63h11.89c4.45 0 6.67 2.21 6.67 6.63v59.54c0 4.42-2.22 6.63-6.67 6.63h-11.89ZM830.48 936.92c-5.67 0-10.91-.94-15.71-2.81-4.8-1.88-8.96-4.52-12.47-7.93s-6.25-7.42-8.22-12.04c-1.97-4.61-2.96-9.66-2.96-15.14s.98-10.52 2.96-15.14c1.97-4.61 4.71-8.63 8.22-12.04 3.5-3.41 7.66-6.05 12.47-7.93 4.81-1.87 10.04-2.81 15.71-2.81 6.15 0 11.58 1.03 16.29 3.1 4.71 2.07 8.8 4.78 12.25 8.14.96 1.06 1.59 2.16 1.87 3.32.29 1.15-.38 2.55-2.02 4.18l-7.64 7.64c-1.06.96-2.16 1.54-3.32 1.73-1.15.19-2.55-.48-4.18-2.02-1.83-1.63-3.77-2.83-5.84-3.6s-4.21-1.15-6.42-1.15c-4.61 0-8.39 1.57-11.32 4.69-2.93 3.12-4.4 7.09-4.4 11.89s1.44 8.8 4.33 11.97c2.88 3.17 6.68 4.76 11.39 4.76 2.21 0 4.35-.41 6.42-1.23 2.07-.81 4.01-2.04 5.84-3.67 1.63-1.54 3.03-2.21 4.18-2.02 1.15.19 2.26.77 3.32 1.73l7.64 7.64c1.63 1.63 2.3 3.02 2.02 4.18-.29 1.15-.91 2.26-1.87 3.32-3.46 3.37-7.54 6.08-12.25 8.15-4.71 2.06-10.14 3.1-16.29 3.1ZM899.96 937.06c-3.17 0-6.27-.29-9.3-.87-3.02-.58-5.84-1.34-8.43-2.31-2.6-.96-4.97-2.06-7.14-3.32-2.16-1.25-3.96-2.54-5.4-3.89-1.63-1.53-2.57-3.05-2.81-4.54s.5-3.19 2.23-5.12l3.46-4.18c1.63-2.02 3.24-2.9 4.83-2.67 1.59.24 3.19.89 4.83 1.95 2.5 1.83 5.26 3.34 8.29 4.54 3.03 1.2 6.22 1.8 9.59 1.8 4.52 0 6.78-1.44 6.78-4.32 0-1.73-.94-3.07-2.81-4.04-1.87-.96-3.97-1.82-6.27-2.59a230.7 230.7 0 0 1-9.66-3.17c-3.27-1.15-6.2-2.62-8.79-4.4-2.6-1.78-4.71-3.96-6.35-6.56s-2.45-5.81-2.45-9.66c0-7.01 2.67-12.56 8-16.65 5.33-4.09 12.52-6.13 21.55-6.13 2.6 0 5.19.22 7.78.65 2.6.43 5.07 1.01 7.43 1.73 2.35.72 4.52 1.56 6.49 2.52 1.97.96 3.58 1.97 4.83 3.03 1.63 1.44 2.55 2.88 2.74 4.33.19 1.44-.58 3.27-2.31 5.48l-3.03 3.75c-1.25 1.64-2.69 2.5-4.32 2.6-1.64.1-3.27-.38-4.9-1.44a27.983 27.983 0 0 0-6.56-3.46c-2.36-.86-4.97-1.29-7.85-1.29-2.02 0-3.58.36-4.69 1.08-1.11.72-1.66 1.66-1.66 2.81 0 1.82 1.49 3.22 4.47 4.18 2.98.96 6.73 2.26 11.25 3.89 2.98 1.15 5.71 2.43 8.22 3.82 2.5 1.4 4.66 2.98 6.49 4.76 1.83 1.78 3.27 3.85 4.33 6.2 1.06 2.36 1.59 5.12 1.59 8.29 0 3.65-.74 6.92-2.23 9.8-1.49 2.88-3.56 5.31-6.2 7.28-2.65 1.97-5.84 3.48-9.59 4.54s-7.88 1.59-12.4 1.59ZM169.93 1028.38c.35.82.36 1.45.03 1.89-.32.44-.92.65-1.79.65h-5.08c-.82 0-1.39-.22-1.69-.65-.31-.43-.63-1.06-.98-1.89l-2.28-5.47h-19.27l-2.34 5.47c-.35.82-.66 1.45-.94 1.89-.28.44-.86.65-1.73.65h-4.75c-.82 0-1.41-.22-1.75-.65-.35-.43-.33-1.06.06-1.89l17.9-37.95c.35-.7.76-1.24 1.24-1.63s1.09-.59 1.82-.59h.59c1.39 0 2.43.74 3.13 2.22l17.83 37.95Zm-14.45-11.78-6.83-16.4-7.03 16.4h13.87ZM215.88 988.6c1.69 0 2.54.84 2.54 2.54v37.37c0 .95-.29 1.65-.88 2.08-.58.44-1.27.65-2.05.65h-.52c-.74 0-1.41-.21-2.02-.62s-1.21-.99-1.82-1.73l-20.96-24.99v24.41c0 1.74-.83 2.61-2.47 2.61h-3.71c-1.69 0-2.54-.87-2.54-2.61v-37.3c0-1 .29-1.7.88-2.12.59-.41 1.27-.62 2.05-.62h.52c.74 0 1.41.21 2.02.62.61.41 1.21.99 1.82 1.73l20.96 24.93v-24.41c0-1.69.82-2.54 2.47-2.54h3.71ZM236.31 1030.91c-1.68 0-2.52-.87-2.52-2.61v-37.17c0-1.69.84-2.54 2.52-2.54h3.75c1.63 0 2.45.84 2.45 2.54v37.17c0 1.74-.82 2.61-2.45 2.61h-3.75ZM304.34 1028.38c.13.82-.01 1.45-.42 1.89-.41.44-1.03.65-1.85.65h-3.25c-.82 0-1.43-.22-1.82-.65-.39-.43-.63-1.06-.72-1.89l-2.8-23.04-9.63 23.5c-.74 1.6-1.78 2.41-3.12 2.41h-.52c-1.43 0-2.47-.8-3.12-2.41l-9.7-23.5-2.73 23.04c-.22 1.69-1.09 2.54-2.6 2.54h-3.71c-1.74 0-2.5-.85-2.28-2.54l5.47-37.89c.17-1.47 1.02-2.21 2.54-2.21h.52c.69 0 1.26.19 1.69.56s.82.92 1.17 1.66l13.02 28.9 12.56-28.9c.65-1.47 1.63-2.21 2.93-2.21h.52c1.43 0 2.28.74 2.54 2.21l5.34 37.89ZM356.35 1028.38c.35.82.36 1.45.03 1.89-.32.44-.92.65-1.79.65h-5.08c-.82 0-1.39-.22-1.69-.65-.31-.43-.63-1.06-.98-1.89l-2.28-5.47h-19.27l-2.34 5.47c-.35.82-.66 1.45-.94 1.89-.28.44-.86.65-1.73.65h-4.75c-.82 0-1.41-.22-1.75-.65-.35-.43-.33-1.06.06-1.89l17.9-37.95c.35-.7.76-1.24 1.24-1.63s1.09-.59 1.82-.59h.59c1.39 0 2.43.74 3.13 2.22l17.83 37.95Zm-14.45-11.78-6.83-16.4-7.03 16.4h13.87ZM370.4 1030.91c-1.68 0-2.52-.85-2.52-2.54v-37.23c0-1.69.84-2.54 2.52-2.54h3.75c1.63 0 2.45.84 2.45 2.54v32.48h16.02c1.74 0 2.6.83 2.6 2.47v2.28c0 1.69-.87 2.54-2.6 2.54H370.4ZM450.09 1008.46c1.09.39 2.11.9 3.06 1.53.95.63 1.79 1.39 2.51 2.28.71.89 1.29 1.9 1.72 3.03.44 1.13.65 2.39.65 3.78 0 1.82-.37 3.46-1.11 4.91-.74 1.45-1.79 2.69-3.16 3.71s-3 1.81-4.88 2.38c-1.89.56-4 .85-6.35.85H427.1c-1.74 0-2.6-.87-2.6-2.61v-37.17c0-1.69.87-2.54 2.6-2.54h14.19c4.47 0 7.95.97 10.45 2.93 2.49 1.95 3.74 4.69 3.74 8.2 0 2.04-.5 3.79-1.5 5.24s-2.3 2.62-3.91 3.48Zm-8.69 15.75c2.53 0 4.47-.51 5.85-1.53 1.37-1.02 2.06-2.51 2.06-4.46 0-1.82-.66-3.29-1.99-4.39-1.33-1.11-3.11-1.66-5.33-1.66h-8.76v12.04h8.17Zm-8.11-28.96v11.06h7.13c2.09 0 3.72-.48 4.87-1.43s1.73-2.32 1.73-4.1-.58-3.15-1.73-4.1-2.78-1.43-4.87-1.43h-7.13ZM473.5 1030.91c-1.73 0-2.59-.87-2.59-2.61v-37.17c0-1.69.86-2.54 2.59-2.54h24.95c1.74 0 2.6.82 2.6 2.47v2.28c0 1.69-.87 2.54-2.6 2.54h-18.81v10.28h14.12c1.74 0 2.6.83 2.6 2.47v1.95c0 1.69-.87 2.54-2.6 2.54h-14.12v10.48h18.94c1.69 0 2.54.83 2.54 2.47v2.28c0 1.69-.85 2.54-2.54 2.54H473.5ZM516.4 1030.91c-1.68 0-2.52-.87-2.52-2.61v-37.17c0-1.69.84-2.54 2.52-2.54h3.75c1.64 0 2.46.84 2.46 2.54v14.91h19.53v-14.91c0-1.69.82-2.54 2.46-2.54h3.75c1.68 0 2.52.84 2.52 2.54v37.17c0 1.74-.84 2.61-2.52 2.61h-3.75c-1.64 0-2.46-.87-2.46-2.61v-14.97h-19.53v14.97c0 1.74-.82 2.61-2.46 2.61h-3.75ZM605.01 1028.38c.34.82.36 1.45.03 1.89-.33.44-.92.65-1.79.65h-5.08c-.83 0-1.39-.22-1.69-.65-.3-.43-.63-1.06-.98-1.89l-2.28-5.47h-19.27l-2.34 5.47c-.35.82-.66 1.45-.95 1.89-.28.44-.86.65-1.73.65h-4.75c-.83 0-1.41-.22-1.76-.65-.35-.43-.32-1.06.07-1.89l17.9-37.95c.35-.7.76-1.24 1.24-1.63.48-.39 1.08-.59 1.82-.59h.58c1.39 0 2.43.74 3.12 2.22l17.84 37.95Zm-14.45-11.78-6.83-16.4-7.03 16.4h13.87ZM647.25 988.6c.82 0 1.46.22 1.92.65s.49 1.04.1 1.82l-17.51 37.76c-.39.87-.81 1.49-1.27 1.85s-1.05.56-1.79.56h-.52c-.74 0-1.33-.19-1.76-.56-.44-.37-.85-.99-1.24-1.85l-17.58-37.76c-.39-.78-.36-1.39.1-1.82s1.1-.65 1.92-.65h4.17c1.6 0 2.73.82 3.38 2.47l11.26 26.88 11.52-26.88c.69-1.65 1.84-2.47 3.45-2.47h3.84ZM663.31 1030.91c-1.68 0-2.52-.87-2.52-2.61v-37.17c0-1.69.84-2.54 2.52-2.54h3.75c1.64 0 2.46.84 2.46 2.54v37.17c0 1.74-.82 2.61-2.46 2.61h-3.75ZM705.35 1031.7c-3.26 0-6.29-.56-9.09-1.66-2.8-1.11-5.24-2.64-7.3-4.59-2.06-1.95-3.68-4.27-4.86-6.97-1.17-2.69-1.76-5.6-1.76-8.72s.59-6.03 1.76-8.72c1.17-2.69 2.79-5.01 4.86-6.96 2.06-1.95 4.5-3.49 7.3-4.59 2.8-1.11 5.84-1.66 9.09-1.66s6.3.56 9.13 1.66 5.26 2.64 7.3 4.59c2.04 1.95 3.65 4.28 4.82 6.96 1.17 2.69 1.76 5.6 1.76 8.72s-.59 6.02-1.76 8.69a21.81 21.81 0 0 1-4.82 6.97c-2.04 1.97-4.47 3.51-7.3 4.62-2.83 1.11-5.87 1.66-9.13 1.66Zm-.03-7.94c1.95 0 3.79-.34 5.5-1.04 1.72-.7 3.21-1.66 4.49-2.9s2.28-2.71 2.99-4.43c.71-1.72 1.07-3.59 1.07-5.63s-.36-3.92-1.07-5.63-1.71-3.19-2.99-4.43c-1.28-1.24-2.78-2.2-4.49-2.89-1.71-.69-3.55-1.04-5.5-1.04s-3.79.35-5.5 1.04c-1.72.69-3.2 1.66-4.46 2.89a13.203 13.203 0 0 0-2.96 4.43c-.72 1.71-1.08 3.59-1.08 5.63s.36 3.92 1.08 5.63c.71 1.71 1.7 3.19 2.96 4.43 1.26 1.24 2.74 2.2 4.46 2.9 1.71.7 3.55 1.04 5.5 1.04ZM759.7 1031.7c-2.87 0-5.49-.46-7.85-1.37-2.37-.91-4.4-2.21-6.1-3.88-1.7-1.67-3-3.67-3.91-5.99s-1.37-4.92-1.37-7.78v-21.55c0-1.69.84-2.54 2.52-2.54h3.75c1.64 0 2.46.84 2.46 2.53v21.83c0 3.25.96 5.86 2.87 7.83 1.92 1.97 4.44 2.95 7.58 2.95s5.65-.98 7.54-2.95c1.89-1.97 2.84-4.58 2.84-7.83v-21.83c0-1.69.85-2.53 2.56-2.53h3.61c1.7 0 2.56.84 2.56 2.54v21.55c0 2.86-.46 5.46-1.37 7.78-.92 2.32-2.21 4.32-3.88 5.99s-3.67 2.96-6 3.88c-2.33.91-4.92 1.37-7.79 1.37ZM826.52 1028.31c.48.87.53 1.52.16 1.95-.37.44-.95.65-1.73.65h-4.76c-.87 0-1.47-.18-1.8-.56-.32-.37-.73-.96-1.21-1.79l-7.83-14.06h-7.18v13.8c0 1.74-.82 2.61-2.46 2.61h-3.75c-1.68 0-2.52-.87-2.52-2.61v-37.17c0-1.69.87-2.54 2.6-2.54h15.04c5.25 0 9.23 1.17 11.95 3.51 2.71 2.34 4.07 5.55 4.07 9.63 0 3-.79 5.48-2.38 7.46-1.58 1.98-3.74 3.4-6.48 4.26l8.27 14.84Zm-24.35-20.05h9.28c2.05 0 3.67-.55 4.87-1.66 1.2-1.11 1.8-2.59 1.8-4.46s-.6-3.43-1.8-4.56c-1.2-1.13-2.82-1.69-4.87-1.69h-9.28v12.37ZM420.33 893.45c.41.98.37 1.74-.12 2.25-.49.52-1.02.98-1.59 1.4-1.24.94-2.81 1.65-4.7 2.14-1.89.49-3.82.74-5.79.74s-3.99-.29-5.9-.86a14.44 14.44 0 0 1-5.17-2.76c-1.53-1.27-2.76-2.9-3.69-4.9-.93-1.99-1.4-4.42-1.4-7.27v-13.52h-3.26c-2.59 0-3.89-1.29-3.89-3.89v-3.19c0-2.59 1.29-3.88 3.89-3.88h3.26v-8.47c0-1.29.33-2.22 1.01-2.76.67-.55 1.63-.95 2.88-1.2l7.38-1.32c1.29-.26 2.28.01 2.95.82.67.8 1.01 1.82 1.01 3.07v9.87h7.07c1.24 0 2.22.34 2.92 1.01.7.67 1.05 1.63 1.05 2.87v3.19c0 1.24-.35 2.2-1.05 2.88-.7.67-1.67 1.01-2.92 1.01h-7.07v11.81c0 1.82.37 3.03 1.12 3.65s1.65.93 2.68.93c.57 0 1.11-.1 1.63-.31.52-.2.98-.44 1.4-.7 1.03-.72 1.81-.89 2.33-.5s.96.97 1.32 1.75l2.64 6.14ZM444.18 899.98c-3.16 0-6.09-.51-8.78-1.51-2.7-1.01-5.01-2.44-6.96-4.28-1.94-1.84-3.46-4-4.54-6.49-1.09-2.49-1.63-5.21-1.63-8.16s.54-5.67 1.63-8.16 2.6-4.65 4.54-6.49c1.94-1.84 4.26-3.26 6.96-4.28 2.69-1.01 5.62-1.51 8.78-1.51s6.15.51 8.82 1.51c2.67 1.01 4.97 2.44 6.91 4.28 1.94 1.84 3.46 4 4.54 6.49 1.09 2.49 1.63 5.21 1.63 8.16s-.55 5.67-1.63 8.16c-1.09 2.48-2.6 4.65-4.54 6.49-1.94 1.84-4.25 3.26-6.91 4.28-2.67 1.01-5.61 1.51-8.82 1.51Zm0-12.98c1.97 0 3.6-.7 4.9-2.1s1.94-3.19 1.94-5.36-.65-3.96-1.94-5.36-2.93-2.1-4.9-2.1-3.6.7-4.89 2.1c-1.3 1.4-1.94 3.18-1.94 5.36s.64 3.96 1.94 5.36c1.29 1.4 2.93 2.1 4.89 2.1Z"/><rect class="cls-2" x="389.41" y="920.24" width="77.46" height="14.8" rx="5.99" ry="5.99"/><path class="cls-2" d="M827.97 782.12c-1.5 0-2.89-.26-4.17-.79s-2.39-1.25-3.34-2.17c-.94-.92-1.69-2.02-2.23-3.28-.54-1.26-.82-2.63-.82-4.11s.27-2.85.82-4.12 1.29-2.37 2.23-3.29c.95-.92 2.06-1.65 3.34-2.18s2.67-.8 4.17-.8 2.86.27 4.15.8c1.29.53 2.41 1.26 3.35 2.18.95.93 1.69 2.02 2.23 3.29.55 1.27.82 2.65.82 4.12s-.27 2.85-.82 4.11c-.54 1.26-1.29 2.35-2.23 3.28-.94.92-2.06 1.65-3.35 2.17s-2.68.79-4.15.79Zm0-2.18c1.17 0 2.26-.21 3.26-.63 1.01-.42 1.88-1 2.62-1.72.74-.73 1.32-1.59 1.74-2.58.42-1 .63-2.08.63-3.25s-.21-2.25-.63-3.25c-.42-.99-1-1.86-1.74-2.58-.74-.73-1.61-1.3-2.62-1.73-1-.42-2.09-.63-3.26-.63s-2.26.21-3.26.63c-1 .42-1.88 1-2.62 1.73s-1.32 1.59-1.74 2.58c-.42 1-.63 2.08-.63 3.25s.21 2.25.63 3.25c.42.99 1 1.86 1.74 2.6s1.61 1.31 2.62 1.73c1.01.41 2.09.62 3.26.62Zm.31-2.19c-.88 0-1.71-.15-2.48-.45a5.97 5.97 0 0 1-2-1.26 5.828 5.828 0 0 1-1.32-1.92c-.32-.74-.48-1.54-.48-2.4s.16-1.69.48-2.43c.32-.74.76-1.38 1.32-1.92a5.97 5.97 0 0 1 2-1.26c.77-.3 1.59-.45 2.48-.45 1.04 0 1.94.17 2.69.52s1.39.79 1.92 1.32c.14.16.23.34.26.54s-.08.4-.32.63l-1.23 1.23c-.16.16-.34.26-.54.29-.19.03-.41-.08-.66-.32-.53-.49-1.18-.74-1.94-.74s-1.33.24-1.77.72-.66 1.1-.66 1.86.22 1.32.65 1.82c.43.49 1.03.74 1.79.74.41 0 .78-.07 1.11-.22.33-.14.61-.33.83-.55.24-.25.47-.35.66-.32.2.03.38.13.54.29l1.23 1.23c.25.24.35.47.32.66s-.12.37-.26.54c-.51.53-1.15.97-1.91 1.32s-1.66.52-2.71.52Z"/></svg>